/* XPM */
static char *icon_mark[] = {
/* columns rows colors chars-per-pixel */
"16 16 135 2",
"   c black",
".  c #443D09",
"X  c #4F3D00",
"o  c #4E4206",
"O  c #4C4109",
"+  c #574500",
"@  c #554708",
"#  c #56460B",
"$  c #574B01",
"%  c #5F4300",
"&  c #58480A",
"*  c #5B4E08",
"=  c #594E0E",
"-  c #534A11",
";  c #5A5106",
":  c #585021",
">  c #604B00",
",  c #614B00",
"<  c #604B0A",
"1  c #654C09",
"2  c #6A5000",
"3  c #685602",
"4  c #6D5701",
"5  c #6C5208",
"6  c #6F580A",
"7  c #64551E",
"8  c #6B5C19",
"9  c #7B5902",
"0  c #7A5D00",
"q  c #7E5C03",
"w  c #7F5E0F",
"e  c #635725",
"r  c #625A2C",
"t  c #6F642E",
"y  c #686133",
"u  c #6D6537",
"i  c #726B27",
"p  c #746A25",
"a  c #70673E",
"s  c #706B34",
"d  c #686144",
"f  c #6C6642",
"g  c #7B744A",
"h  c #866806",
"j  c #8A6C0C",
"k  c #847415",
"l  c #87781D",
"z  c #946D0E",
"x  c #90750E",
"c  c #9E7A0C",
"v  c #957110",
"b  c #917E17",
"n  c #857527",
"m  c #A0770D",
"M  c #A17B10",
"N  c #9A8218",
"B  c #8D8435",
"V  c #948125",
"C  c #91832A",
"Z  c #9B8933",
"A  c #A38B0D",
"S  c #AF850D",
"D  c #AB8E0E",
"F  c #A48E1F",
"G  c #AC8712",
"H  c #AE8414",
"J  c #B48E09",
"K  c #B39F1C",
"L  c #BE971E",
"P  c #A2962A",
"I  c #AD9B2B",
"U  c #B48E29",
"Y  c #BDA126",
"T  c #BFAB28",
"R  c #B8A336",
"E  c #9C8E47",
"W  c #90895F",
"Q  c #9A956B",
"!  c #ADA34C",
"~  c #C19818",
"^  c #C0A00D",
"/  c #CBAB08",
"(  c #C3A916",
")  c #C8A211",
"_  c #C7B11D",
"`  c #D6B71E",
"'  c #D4BD17",
"]  c #C7A720",
"[  c #C4B72D",
"{  c #CCBC21",
"}  c #D1AC20",
"|  c #E0BD21",
" . c #C2AF46",
".. c #C1B642",
"X. c #C3B753",
"o. c #C3B368",
"O. c #D9CE1E",
"+. c #CFC82F",
"@. c #CCC338",
"#. c #CEC63D",
"$. c #D5C929",
"%. c #D2CC3A",
"&. c #E1CE1C",
"*. c #E4D731",
"=. c #E6DD3A",
"-. c #F6DB2C",
";. c #E5E137",
":. c #ECE330",
">. c #F6E13A",
",. c #FCE237",
"<. c #FFED36",
"1. c #FFF03E",
"2. c #C8C14F",
"3. c #D3C542",
"4. c #DBD042",
"5. c #DAD641",
"6. c #CFC762",
"7. c #D6CA74",
"8. c #DFD573",
"9. c #E0DF6B",
"0. c #E5E046",
"q. c #ECE95C",
"w. c #FFF944",
"e. c #FFFD47",
"r. c #FFFB50",
"t. c #E6E06E",
"y. c #EBE779",
"u. c #FFFF98",
"i. c #F9ECA6",
"p. c #F6F4A9",
"a. c #FEFCAF",
"s. c #FFFFAC",
"d. c #FFF5BD",
"f. c #FFFFBD",
"g. c None",
/* pixels */
"g.g.g.g.g.g.g.g.g.g.g.g.g.g.g.g.",
"g.g.g.g.p.a.6.8.7.i.g.g.g.g.g.g.",
"g.g.g.a.9.q.0.+.@...! g.g.g.g.g.",
"g.g.f.y.5.;.:.O.$.[ P B g.g.g.g.",
"g.g.t.%.r.e.1.>._ K I C i g.g.g.",
"g.u.#.=.w.<.,.` ] Y F k ; g.g.g.",
"g.2.4.*.&.-.| } L c x V $ s g.g.",
"g.X.3.{ ' / ) ~ H U h 4 * y g.g.",
"g.o...T ( ^ J S m v 0 , o f g.g.",
"g.d.Z R A D G M z q 2 + t d g.g.",
"g.g.E l b N j 9 w % , 8 . g.g.g.",
"g.g.g.p n 3 6 5 1 < X O Q g.g.g.",
"g.g.g.g.- = @ & # 7 e W g.g.g.g.",
"g.g.g.g.g.g u : r a g.g.g.g.g.g.",
"g.g.g.g.g.g.g.g.g.g.g.g.g.g.g.g.",
"g.g.g.g.g.g.g.g.g.g.g.g.g.g.g.g."
};
