/* XPM */
static char *icon_save[] = {
/* columns rows colors chars-per-pixel */
"16 16 38 1",
"  c black",
". c #26265F",
"X c #1E1E81",
"o c #202084",
"O c #2D2D81",
"+ c #2A2A92",
"@ c #343481",
"# c #3737A4",
"$ c #5B5B93",
"% c #4B4BBD",
"& c #5A5AB1",
"* c #5A6CA6",
"= c #7373AD",
"- c #7F7FBB",
"; c #84849A",
": c #939393",
"> c #9F9F9F",
", c #9D9DBB",
"< c gray68",
"1 c #AFAFAF",
"2 c gray69",
"3 c #B1B1B1",
"4 c #B2B2B2",
"5 c #B4B4B4",
"6 c gray71",
"7 c #B7B7B7",
"8 c #A3A3C1",
"9 c #A0A0CF",
"0 c #B7B7D8",
"q c #B8B8D1",
"w c #C1C1CA",
"e c #CECECE",
"r c gainsboro",
"t c gray92",
"y c #F8F8F8",
"u c gray98",
"i c gray100",
"p c None",
/* pixels */
"pppppppppppppppp",
"p*@=66666266=@ p",
"p*%=yyyyyyyy=%@p",
"p*%=y122266y=%@p",
"p*%=yyyyyyyy=%@p",
"p*%=y222666y=%@p",
"p*%=yyyyyyyy=%@p",
"p*%%========%%@p",
"p*%%%%%%%%%%%%@p",
"p*%%@q-,:<0XX%@p",
"p*%%@0+$:eioX%@p",
"p*%%@,#=eyt.X%@p",
"p*%%+;&9ytrXX%@p",
"p .@.><><>>XX@@p",
"pppppppppppppppp",
"pppppppppppppppp"
};
