/* XPM */
static char *icon_html[]={
"16 16 30 1",
". c None",
"y c #000084",
"B c #00009c",
"x c #00309c",
"w c #00619c",
"# c #0061ce",
"c c #009eff",
"j c #00cfff",
"A c #101010",
"z c #313063",
"g c #31309c",
"d c #3130ce",
"u c #31619c",
"s c #3161ce",
"a c #3161ff",
"b c #319ece",
"v c #5a595a",
"r c #6361ce",
"h c #639e9c",
"e c #639ece",
"k c #63ffff",
"p c #737173",
"n c #9c9e64",
"m c #9effff",
"f c #c9e5e4",
"t c #ce9e63",
"q c #d3d4a7",
"i c #e1e2e1",
"o c #ffcf9c",
"l c #ffff9c",
"...........####.",
"......######...#",
"....##aaaabc#..a",
"...d#ef##bcbc#..",
"..dghi##dd#jkc#.",
"..ghla##..dbmk#.",
".dnoaa#....dkjc#",
".pqrsaaaabbcccc#",
"pqtsua##########",
"ptadua#.........",
"vnsgu#a....daaaw",
"vsxydua#..daaaaw",
"vd.zgdua#aaaaaw.",
"pd..AAduu#aaww..",
".dw..xABduww....",
"..ddd..........."};
