/* XPM */
static char *icon_multimedia[]={
"16 16 133 2",
"Qt c None",
".V c #003638",
".A c #003d40",
".9 c #01191a",
".L c #01c2d2",
"#u c #022224",
"#j c #02575d",
"#v c #025a61",
"#. c #02626a",
"#k c #026670",
"## c #026e76",
"#a c #027780",
".W c #02b6c0",
".X c #02b7c3",
"#i c #03484c",
".Y c #03b6c3",
"#F c #152e30",
".B c #18a9b4",
".t c #1bb7c1",
".M c #1c8692",
".K c #1fbbc5",
"#G c #286870",
".r c #303030",
".l c #346668",
"#P c #384f50",
"#l c #398188",
".z c #424242",
"#w c #4d7e84",
".m c #4e5252",
"#b c #4e929a",
".u c #526466",
"#Z c #55706c",
".s c #56605f",
".j c #575757",
".# c #585858",
".C c #5b5b5b",
".N c #5e5e5e",
".k c #626f6e",
".y c #6b6b6b",
".e c #6b7877",
".i c #6d6d6d",
".v c #6e6e6e",
".p c #707070",
".E c #737373",
".D c #747474",
".Z c #75b4b8",
"#z c #7c7873",
".O c #848484",
".3 c #848888",
"#Q c #86a0a0",
".x c #898989",
"#o c #898c88",
"#d c #8a8e8c",
".F c #8c8e8e",
".J c #8f8984",
".P c #959595",
".c c #999999",
".1 c #9f9f9f",
"#J c #a49e94",
"#0 c #a69d8f",
"#S c #b0a799",
".2 c #b6b6b6",
".w c #b8b8b8",
"ac c #bc9e73",
"#5 c #bca178",
"#X c #bca37f",
"#O c #bca685",
"#E c #bca88a",
"#t c #bcab90",
".8 c #bcae97",
".b c #bcb7b1",
"ab c #bda076",
"aa c #bea57f",
".U c #beb6af",
"a# c #bfaa88",
"#H c #bfbfbf",
"a. c #c0af91",
".0 c #c0c0c0",
"#9 c #c2b39a",
"#8 c #c3b8a3",
"#1 c #c4b7a4",
"#7 c #c4bdac",
"#6 c #c6c1b6",
"#A c #c8c0b4",
"#K c #cac0b1",
"#p c #cac4bb",
"#e c #ccc8c2",
".q c #cecece",
".4 c #cfcecb",
".f c #d0d0d0",
"#I c #d1d1d1",
"#T c #daccb7",
"#x c #dbdbdb",
"#R c #dcdcdc",
".a c #dedede",
".Q c #dfdfdf",
".n c #e1e1e1",
".I c #e2e0de",
"#c c #e4e4e4",
"#4 c #e5cca7",
"#Y c #e6e0d9",
"#W c #e7d1b0",
".T c #e7e0d9",
"#3 c #e9d6b8",
"#V c #e9d6b9",
"#N c #e9d6ba",
".h c #eaeaea",
"#2 c #ecdabf",
"#U c #ecdac0",
"#D c #ecdbc2",
"#M c #ecdcc1",
"#s c #ecdfca",
"#h c #ece2d4",
"#y c #ececec",
"#L c #eee0c9",
"#C c #eee0ca",
".7 c #eee7dc",
"#B c #f1e4d2",
"#r c #f1e6d4",
"#m c #f1f1f1",
".G c #f2f2f2",
"#q c #f3eadc",
"#g c #f3ebdc",
".6 c #f3ede3",
".S c #f4f0ec",
"#f c #f5efe5",
".H c #f6f5f5",
".5 c #f8f4ed",
"#n c #f9f9f9",
".R c #fbf9f6",
".o c #fcfcfc",
".g c #fefefe",
".d c #ffffff",
"QtQtQt.#.#.#.#.#.#.#.#.#QtQtQtQt",
"QtQtQt.#.a.a.a.a.a.b.#.c.#QtQtQt",
"QtQtQt.#.d.e.e.f.g.h.i.d.c.#QtQt",
"QtQtQt.j.k.l.m.m.n.o.p.q.d.c.rQt",
"QtQtQt.s.t.u.p.v.w.d.x.p.y.z.rQt",
"QtQt.A.t.B.C.D.E.F.G.H.I.b.J.rQt",
"Qt.A.K.L.M.N.O.P.F.Q.R.S.T.U.rQt",
".V.W.X.Y.Z.0.1.2.3.4.5.6.7.8.rQt",
".9#.###a#b.v.h#c#d#e#f#g#h.8.rQt",
"Qt#i#j#k#l.w#m#n#o#p#q#r#s#t.rQt",
"QtQt#u#v#w.0#x#y#z#A#B#C#D#E.rQt",
"QtQtQt#F#G#H#I.2#J#K#L#M#N#O.rQt",
"QtQtQt.##P#Q#R#z#S#T#U#V#W#X.rQt",
"QtQtQt.##Y#P#Z#0#1#2#3#W#4#5.rQt",
"QtQtQt.##6#6#7#8#9a.a#aaabac.rQt",
"QtQtQt.#.r.r.r.r.r.r.r.r.r.r.rQt"};
