/* XPM */
static char *icon_color[] = {
/* columns rows colors chars-per-pixel */
"16 16 13 1",
"  c black",
". c #00007B",
"X c #007B00",
"o c #007B7B",
"O c #7B0000",
"+ c #7B7B00",
"@ c blue",
"# c green",
"$ c cyan",
"% c red",
"& c yellow",
"* c #DEE7EF",
"= c None",
/* pixels */
"================",
"=O%%*@.$*#oX&&*=",
"=O%*@@.$$*#X+&&=",
"=O%%*@.$*#oX+&*=",
"=O%*@.$$$*#X&&&=",
"=O%%*@.$*#oX+&*=",
"=O%*@@.$$*#X+&&=",
"=O%%*@.$*#oX+&*=",
"=O%*@.$$$*#X&&&=",
"=O%%*@.$*#oX+&*=",
"=O%*@@.$$*#X+&&=",
"=O%%*@.$*#oX+&*=",
"=O%*@.$$$*#X&&&=",
"=O%%*@.$*$#X+&*=",
"================",
"================"
};
