/* XPM */
static char *icon_load[] = {
/* columns rows colors chars-per-pixel */
"16 16 41 1",
"  c black",
". c #9D7A19",
"X c #A5720C",
"o c #A17D18",
"O c #B18918",
"+ c #BF9928",
"@ c #C69A18",
"# c #C69A19",
"$ c #C79C1B",
"% c #C9A020",
"& c #CEA221",
"* c #CFA225",
"= c #D7B83F",
"- c #C3A15D",
"; c #CEBC5B",
": c #DEB242",
"> c #DABF6B",
", c #E2B342",
"< c #EFBA42",
"1 c #E7BE52",
"2 c #E2C14F",
"3 c #FFC75A",
"4 c #FFD76B",
"5 c #FDD56F",
"6 c #FFDF7B",
"7 c #F0E479",
"8 c #FFE37B",
"9 c #FFD784",
"0 c #E1D0AE",
"q c #FFE784",
"w c #FFEB84",
"e c #F7F089",
"r c #FFF38C",
"t c #FFF794",
"y c #FFF39C",
"u c #FBF996",
"i c #FFFF9C",
"p c #FFFFA5",
"a c #FFFBF7",
"s c gray100",
"d c None",
/* pixels */
"dddddddddddddddd",
"dddddddddddddddd",
"dd&&&&dddddddddd",
"d&ssss@ddddddddd",
"@siiiis@@@@@@ddd",
"@yrrrrrsssss@.dd",
"@w2@@@@@@@@@@@Od",
"@9@>ssasssssqsod",
"@5@eiiiiiiii3uXd",
"@,%ptttttttt1;-d",
"@*=iwwwwwwwq<@0d",
"@@7i88888886:.dd",
"@$i444444444+Xdd",
"dXXXXXXXXXXXXddd",
"dddddddddddddddd",
"dddddddddddddddd"
};
