/* XPM */
static char *icon_style[] = {
/* columns rows colors chars-per-pixel */
"16 16 92 1",
"  c gray35",
". c #5B5B5B",
"X c #5D5D5D",
"o c gray37",
"O c #606060",
"+ c #626262",
"@ c gray39",
"# c #646464",
"$ c #656565",
"% c gray40",
"& c #676767",
"* c DimGray",
"= c #6A6A6A",
"- c gray42",
"; c #6C6C6C",
": c #6D6D6D",
"> c gray43",
", c #6F6F6F",
"< c #727272",
"1 c gray46",
"2 c #808080",
"3 c gray51",
"4 c gray52",
"5 c #898989",
"6 c #8B8B8B",
"7 c #8E8E8E",
"8 c gray56",
"9 c gray58",
"0 c #9F9F9F",
"q c #A0A0A0",
"w c #A4A4A4",
"e c gray66",
"r c #AAAAAA",
"t c #ACACAC",
"y c gray68",
"u c #AEAEAE",
"i c #AFAFAF",
"p c #B4B4B4",
"a c gray",
"s c gray75",
"d c #C0C0C0",
"f c #C1C1C1",
"g c gray76",
"h c #C3C3C3",
"j c gray77",
"k c #C5C5C5",
"l c #C6C6C6",
"z c gray78",
"x c #C8C8C8",
"c c gray79",
"v c #CACACA",
"b c #CBCBCB",
"n c gray80",
"m c #CDCDCD",
"M c #CECECE",
"N c gray81",
"B c #D0D0D0",
"V c gray82",
"C c #D2D2D2",
"Z c LightGray",
"A c gray83",
"S c #D5D5D5",
"D c gray84",
"F c #D7D7D7",
"G c #D8D8D8",
"H c gray85",
"J c gray88",
"K c #E1E1E1",
"L c #E2E2E2",
"P c gray89",
"I c #E4E4E4",
"U c gray90",
"Y c #E6E6E6",
"T c #E7E7E7",
"R c gray91",
"E c #E9E9E9",
"W c #EAEAEA",
"Q c gray92",
"! c #ECECEC",
"~ c gray93",
"^ c #EEEEEE",
"/ c #EFEFEF",
"( c gray94",
") c #F1F1F1",
"_ c gray95",
"` c #F3F3F3",
"' c #F4F4F4",
"] c gray96",
"[ c #F6F6F6",
"{ c gray97",
"} c #F9F9F9",
"| c #FBFBFB",
/* pixels */
"nnbbZhCbnbjHChZj",
"CRQQ`U`QR``RR`QC",
"b{`QRRQ```QJQ{UC",
"aQnyryyyrryyyy0C",
"Z`r+&*o.*&+&.*1h",
"bUw&ybZZh0&*3jbZ",
"CRy>ZUQR`ho+9{`j",
"nUp1``{RRb*>3J{b",
"nQbhU`QQQj++9`Qj",
"b`RJ`````C*&3JQZ",
"a``R`QRQ`h+>9QQb",
"n``R{``Q`boo6Q`C",
"C`QQ`Q`QRC>+4Q`b",
"jQ``QU``Rjoo6``a",
"CQ``RU`Q`n*<6UQH",
"bCjbCCZbjZhZhnbb"
};
