/* XPM */
static char *icon_options[] = {
/* columns rows colors chars-per-pixel */
"16 16 56 1",
"  c black",
". c gray40",
"X c #676767",
"o c #6C6C6C",
"O c #6D6D6D",
"+ c #727272",
"@ c gray46",
"# c #767676",
"$ c #777777",
"% c gray47",
"& c #797979",
"* c #7B7B7B",
"= c #7C7C7C",
"- c #7E7E7E",
"; c #818181",
": c #848484",
"> c gray52",
", c #888888",
"< c #898989",
"1 c gray54",
"2 c gray55",
"3 c #929292",
"4 c #959595",
"5 c gray59",
"6 c #979797",
"7 c gray60",
"8 c #9A9A9A",
"9 c gray61",
"0 c #A0A0A0",
"q c gray63",
"w c #A5A5A5",
"e c #A9A9A9",
"r c #AAAAAA",
"t c gray68",
"y c #B1B1B1",
"u c gray71",
"i c #B7B7B7",
"p c #B9B9B9",
"a c #C1C1C1",
"s c gray76",
"d c #C3C3C3",
"f c gray77",
"g c #CACACA",
"h c #D0D0D0",
"j c gray86",
"k c #DFDFDF",
"l c gray88",
"z c #E1E1E1",
"x c #E2E2E2",
"c c gray90",
"v c gray92",
"b c gray93",
"n c #EFEFEF",
"m c gray94",
"M c gray95",
"N c #F3F3F3",
/* pixels */
"6              q",
" Mzzzzzzzzzzzzd ",
" zaaaaaadadada6 ",
" za7   8adadaa6 ",
" za czg .><<yd6 ",
" za zaw     Nd6 ",
" za gw8 tMMvja6 ",
" za7   X>addda6 ",
" zap$O.$<   7a6 ",
" zat=$$+ czg 66 ",
" za=     zdw 26 ",
" zaynMnM gw7 <6 ",
" zdddddd8   .>6 ",
" zdddaddp$O.$t6 ",
" w6666667<<;$6$ ",
"w              q"
};
