/* XPM */
static char *icon_view[] = {
/* columns rows colors chars-per-pixel */
"16 16 18 1",
"  c black",
". c #111111",
"X c #330000",
"o c #222222",
"O c #663300",
"+ c #555555",
"@ c #777777",
"# c #996600",
"$ c #996633",
"% c #CC6633",
"& c #FF9966",
"* c #888888",
"= c #AAAAAA",
"- c #BBBBBB",
"; c #FFCC99",
": c gray80",
"> c #DDDDDD",
", c None",
/* pixels */
",,,,,,,,,,,,,,,,",
",,,,;;;;;;;;,,,,",
",,;;;>>>>$OO&;,,",
",,;::::&$OXXX+,,",
",;;&$OOOXXXXXX;,",
",;>&$$ o     X;,",
",;&XXX.      X;,",
",;X&-.=    o X;,",
",;;;-      :XX;,",
",;;&>@   .--XO;,",
",;;&&>*oo-%oO-;,",
",;;;&&;;:%O%O&;,",
",,;;;&&#OOOO%;,,",
",,;;;;;&OOO#;;,,",
",,,,;;;;;;;;,,,,",
",,,,,,,,,,,,,,,,"
};
