/* XPM */
static char *icon_edit[] = {
/* columns rows colors chars-per-pixel */
"16 16 16 1",
"  c black",
". c #202020",
"X c #633163",
"o c gray39",
"O c #7B7B7B",
"+ c #7B7BC6",
"@ c #FF5A5A",
"# c gray61",
"$ c gray74",
"% c #BDCED6",
"& c #FFA5A5",
"* c #CECECE",
"= c #D6D6CE",
"- c gray87",
"; c gray100",
": c None",
/* pixels */
"::::::::::::X&X:",
"::+++++++++X&&oX",
":%%%%%%%%%X&&o@@",
":+%;;;;;;X&&o@@X",
":+%;;;;;X&&o@@X:",
":+%;;;;X&&o@@X::",
":+%;OOX$XX@@X:::",
":+%;;;X==X@X-:::",
":+%;OOXX*=X.-:::",
":+%;;;XXXX;.-:::",
":+%;OOOO$;;.-:::",
":+%;;;;;;;;.-:::",
":+%;O$;;;;;.-:::",
":+%;;;;;;;;.-:::",
"::$........#-:::",
"::---------:::::"
};
