/* XPM */
static char *icon_browser[] = {
/* columns rows colors chars-per-pixel */
"15 16 190 2",
"   c black",
".  c #016D01",
"X  c #017702",
"o  c #017109",
"O  c #01790E",
"+  c #14681D",
"@  c #1B7D1B",
"#  c #036532",
"$  c #085A5A",
"%  c #0E6447",
"&  c #176259",
"*  c #265F72",
"=  c #306952",
"-  c #22717C",
";  c #4D535E",
":  c #414D66",
">  c #606060",
",  c gray39",
"<  c gray43",
"1  c #717171",
"2  c #727272",
"3  c gray45",
"4  c gray46",
"5  c #797979",
"6  c gray48",
"7  c gray49",
"8  c #073799",
"9  c #0142A5",
"0  c #014AB2",
"q  c #0158BE",
"w  c #045CBF",
"e  c #0B53B3",
"r  c #017D93",
"t  c #2D4880",
"y  c #2C4A9D",
"u  c #325787",
"i  c #047FDF",
"p  c #1276D7",
"a  c #1674D1",
"s  c #397BC1",
"d  c #41638B",
"f  c #567495",
"g  c #7A779B",
"h  c #018208",
"j  c #03803B",
"k  c #01843E",
"l  c #3BB52A",
"z  c #01814C",
"x  c #31AF44",
"c  c #33B243",
"v  c #4ABF1C",
"b  c #609C79",
"n  c #76B470",
"m  c #5BC630",
"M  c #69CA37",
"N  c #6DCF30",
"B  c #7FD956",
"V  c #7BD662",
"C  c #78D465",
"Z  c #018993",
"A  c #018EB7",
"S  c #1690AA",
"D  c #30B2A1",
"F  c #0790C4",
"G  c #0185E0",
"H  c #0196FF",
"J  c #248DDB",
"K  c #3280CA",
"L  c #2F9EE6",
"P  c #20A8FF",
"I  c #30B2FF",
"U  c #7F9FB7",
"Y  c #7CAB85",
"T  c #579DD5",
"R  c #63A2C3",
"E  c #6BA2C5",
"W  c #76B5E3",
"Q  c #76BBE9",
"!  c #74D38D",
"~  c #69C4DA",
"^  c #73D2FF",
"/  c #90B97B",
"(  c #87D669",
")  c #808080",
"_  c gray55",
"`  c #8D8D8D",
"'  c #929292",
"]  c #9D9D9D",
"[  c #9F9F9F",
"{  c #899DA6",
"}  c #9A9AB2",
"|  c #92A6B4",
" . c #9BA8B9",
".. c gray63",
"X. c #A6AEAC",
"o. c gray66",
"O. c #AAAAAA",
"+. c gray68",
"@. c #A2B3BE",
"#. c #B4BDB1",
"$. c gray74",
"%. c #9BB0C7",
"&. c #85BBE1",
"*. c #A1AFC8",
"=. c #ACB4C4",
"-. c #B2B6C7",
";. c #89DD8E",
":. c #86D89F",
">. c #94D398",
",. c #80D8AB",
"<. c #97DFAE",
"1. c #99E6A4",
"2. c #9EE8AE",
"3. c #9CE8BF",
"4. c #B0C6A7",
"5. c #A5EEB1",
"6. c #90C0E0",
"7. c #93C3E5",
"8. c #AADCE3",
"9. c #A5D6F2",
"0. c #B5ECD3",
"q. c #BEF6C1",
"w. c #B3F2D0",
"e. c #BEF4D0",
"r. c #B2E3E3",
"t. c #BAE0E9",
"y. c #C0CDB6",
"u. c #C2C1C0",
"i. c #C5C5C5",
"p. c #CBC7C8",
"a. c #CACACA",
"s. c gray80",
"d. c #CDCDCE",
"f. c #C9CFD4",
"g. c #D2D2D3",
"h. c #D0D0D6",
"j. c #D2D2D5",
"k. c gray84",
"l. c #D6D7DD",
"z. c #DAD4D3",
"x. c gray85",
"c. c gainsboro",
"v. c gray87",
"b. c #C2DFEE",
"n. c #D3DCE1",
"m. c #CBEEEC",
"M. c #DFF5FC",
"N. c #E8DEDE",
"B. c #E0DDE2",
"V. c gray88",
"C. c #E2E2E2",
"Z. c gray89",
"A. c #E4E4E4",
"S. c gray90",
"D. c #E6E6E6",
"F. c #E7E7E7",
"G. c #E9E9E9",
"H. c #EAEAEA",
"J. c gray92",
"K. c #EDEAE8",
"L. c #ECECEC",
"P. c gray93",
"I. c #EEEEEE",
"U. c #E0EDF4",
"Y. c #E8F9FB",
"T. c #F0F0EF",
"R. c #F5F0ED",
"E. c #F4F3EF",
"W. c gray94",
"Q. c #F3F3F3",
"!. c #F1F3F4",
"~. c #F4F4F3",
"^. c #F4F4F4",
"/. c #F7F6F5",
"(. c #F6F6F6",
"). c #F3FDFC",
"_. c #F4FEFE",
"`. c #F8F7F5",
"'. c #F8F8F8",
"]. c #F9F9F9",
"[. c gray98",
"{. c #FBFBFB",
"}. c #FCFCFB",
"|. c #FEFEFB",
" X c gray99",
".X c #FDFDFD",
"XX c #FCFFFF",
"oX c #FDFFFF",
"OX c #FFFFFC",
"+X c None",
/* pixels */
"+X+X+XoXY.m.t.8.t.U.}.+X+X+X+X",
"+X+X_.0.! ;.C m c L 6.Y.oX+X+X",
"+X).:.C 2.w.1.N c G G E Z.oX+X",
"oX<.v B 5.q.e.! D F r # U F.+X",
"M.S l M >.( 3.^ P A k X - $.~.",
"9.p b / 4.4.~ I H Z h o % ' S.",
"Q s X.Y n s.=.&.J z O # & 6 c.",
"W w a E oXj.g N.#.@ . + * 2 x.",
"6.0 q %.K.d.} j.z.{ $ = u 2 N.",
"m.e 9  .`.+XoX!.R.n.f d t ) N.",
"W.T 8 =.+X}.!.I.G.E.-.y ; ] B.",
"{.n.K *.oXI.J.F.N.(.l.* 6 p.`.",
"+X{.f.| R.Z.N.N.F.+Xz.> O.K.+X",
"+X+X(.u.g.J.W._.+X}.[ < s.[.+X",
"+X+X+XW.+.a.S.J.c..., ` B.+X+X",
"+X+X+XoXS.o.7 2 2 4 ` i./.+X+X"
};
