/* XPM */
static char *icon_plugins[] = {
/* columns rows colors chars-per-pixel */
"16 16 135 2",
"   c #0D49AB",
".  c #0D51B2",
"X  c #124AAA",
"o  c #154EAC",
"O  c #1850AD",
"+  c #1F55AF",
"@  c #1454B1",
"#  c #1A63BF",
"$  c #2565BD",
"%  c #167DDD",
"&  c #1B7DDA",
"*  c #187EDC",
"=  c #1E7EDA",
"-  c #236EC3",
";  c #266EC3",
":  c #286CC0",
">  c #2673C7",
",  c #2F77CB",
"<  c #2C77CC",
"1  c #207FDB",
"2  c #2E74D0",
"3  c #377DCB",
"4  c #3F71C6",
"5  c #347ED2",
"6  c #4269B3",
"7  c #2482DC",
"8  c #3482D6",
"9  c #3E86D0",
"0  c #3988DA",
"q  c #3B93E6",
"w  c #3B94E8",
"e  c #4F82C7",
"r  c #4682D5",
"t  c #4189D6",
"y  c #408FDD",
"u  c #438FDC",
"i  c #5A84C4",
"p  c #5C88C8",
"a  c #5B8AD3",
"s  c #5B89D4",
"d  c #5891CF",
"f  c #5793D7",
"g  c #5A92D6",
"h  c #5A94D2",
"j  c #5E91D4",
"k  c #5E97D5",
"l  c #589CDA",
"z  c #4294E3",
"x  c #4394E3",
"c  c #4497E7",
"v  c #4C9CE9",
"b  c #4C9DE8",
"n  c #4F9EEA",
"m  c #539DE7",
"M  c #509FE8",
"N  c #519EE8",
"B  c #539FEA",
"V  c #54A0E8",
"C  c #54A1EB",
"Z  c #56A2EB",
"A  c #58A1E9",
"S  c #59A2E9",
"D  c #59A3E9",
"F  c #58A3EA",
"G  c #5AA1E8",
"H  c #5AA5EA",
"J  c #5DA4EA",
"K  c #5FA5EB",
"L  c #5CA5EC",
"P  c #5FA6ED",
"I  c #6093CD",
"U  c #6493CE",
"Y  c #639CD5",
"T  c #619AD8",
"R  c #649ADA",
"E  c #669DD8",
"W  c #679CD9",
"Q  c #66A4DC",
"!  c #69A0D8",
"~  c #6BA3D9",
"^  c #6BA4DA",
"/  c #6CA8DF",
"(  c #6FA8DE",
")  c #73A3DA",
"_  c #60A6EB",
"`  c #61A6EB",
"'  c #62A7EB",
"]  c #65A9ED",
"[  c #65AAEE",
"{  c #65ABEF",
"}  c #66ABEE",
"|  c #68A5E3",
" . c #69ABED",
".. c #68ACEE",
"X. c #6AACEF",
"o. c #6BADEF",
"O. c #67ADF1",
"+. c #68ADF2",
"@. c #6EB1F2",
"#. c #70ACE3",
"$. c #72AEE9",
"%. c #77B1E9",
"&. c #74B2EE",
"*. c #70B2F2",
"=. c #77B5F0",
"-. c #77B6F6",
";. c #7FBBF2",
":. c #7CB8F5",
">. c #8FABDD",
",. c #86ABE2",
"<. c #A1BDE6",
"1. c #A4BAE1",
"2. c #A1BFE9",
"3. c #8DC3F8",
"4. c #9CC7EF",
"5. c #9ACBFD",
"6. c #AAC0E5",
"7. c #AEC3EA",
"8. c #ABD4FD",
"9. c #BCDCF7",
"0. c #CDDEF6",
"q. c #D4E3F8",
"w. c #DFEBF7",
"e. c #E1EAF6",
"r. c #E0EBF8",
"t. c #EAF5FF",
"y. c #EFF5FC",
"u. c #F0F4FB",
"i. c #F2F5FD",
"p. c #F2F7FD",
"a. c #F3F9FF",
"s. c #F5F8FD",
"d. c #F8FAFE",
"f. c #FEFEFE",
"g. c gray100",
/* pixels */
"g.g.g.g.g.g.g.g.g.g.g.g.g.g.g.g.",
"g.g.g.g.g.9.Q ( l 4.g.g.g.g.g.g.",
"g.g.g.g.a.#.8.@.O.0 a.g.g.g.g.g.",
"g.g.g.g.t.%.-.o.O.9 s.g.g.g.g.g.",
"g.g.g.g.g.| ..o.' I e.w.r.y.g.g.",
"g.g.;.=.$.T &.] K t ) W f U g.g.",
"g.g.( 5.3.:.] K S C z 8 w e g.g.",
"g.g.^ *...] ` D V u p <.r ,.g.g.",
"g.g.~ O.` K B N n : u.g.g.g.g.g.",
"g.g.W K S S S N n $ s.g.g.g.g.g.",
"g.g.W N N 5 < ; 0 < 1.g.7.>.g.g.",
"g.g.Y v 3 0.g.i.i z # 4 j @ g.g.",
"g.g.k c g g.g.g.6.R 7 1 * o g.g.",
"g.g.h q , q.g.g.s D = & % + g.g.",
"g.g.d > - 2.g.g.s .   X O 6 g.g.",
"g.g.g.g.g.g.g.g.g.g.g.g.g.g.g.g."
};
