/* XPM */
static char *icon_addressbook[] = {
/* columns rows colors chars-per-pixel */
"16 16 26 1",
"  c black",
". c gray20",
"X c #333366",
"o c gray40",
"O c #6666CC",
"+ c #6699CC",
"@ c #66CCFF",
"# c #996666",
"$ c #CC6600",
"% c #FF9900",
"& c #FF9933",
"* c #FF9966",
"= c #FFCC66",
"- c gray60",
"; c #9999FF",
": c #99CCFF",
"> c #CC99CC",
", c #CCCC99",
"< c #FFCC99",
"1 c gray80",
"2 c #CCCCFF",
"3 c #CCFFFF",
"4 c #FFCCCC",
"5 c #FFFFCC",
"6 c gray100",
"7 c None",
/* pixels */
"7777777777777777",
"7777777774=*7777",
"77777777434=-777",
"%=421774363<*777",
"*3654<,36664=O77",
"115663236663<--7",
"7*36652466664*o7",
"7%25663@366634#o",
"71*3565246666*-X",
"77%235642366*-.7",
"771+:235@23*#.77",
"777$$-;:;>&oX777",
"777-oo$$+o.X7777",
"77777777o.o77777",
"7777777777777777",
"7777777777777777"
};
