/* XPM */
static char *icon_redo[] = {
/* columns rows colors chars-per-pixel */
"16 16 82 1",
"  c black",
". c #004BB8",
"X c #0055B8",
"o c #0057BE",
"O c #005ABD",
"+ c #005ABF",
"@ c #1658B9",
"# c #185AB8",
"$ c #005AC2",
"% c #005CC0",
"& c #005EC5",
"* c #005FC6",
"= c #005FC8",
"- c #0063C6",
"; c #0063CE",
": c #0064CC",
"> c #0068C9",
", c #0063D1",
"< c #0063D2",
"1 c #0264D1",
"2 c #0265D2",
"3 c #006BD0",
"4 c #006FD0",
"5 c #006FD1",
"6 c #0071D2",
"7 c #0071D3",
"8 c #0072D3",
"9 c #0070D4",
"0 c #0072D4",
"q c #0075D7",
"w c #0071D8",
"e c #0074DC",
"r c #166DCD",
"t c #1F72CD",
"y c #1D77D7",
"u c #1973D8",
"i c #1D78D7",
"p c #1A78D8",
"a c #1D78D8",
"s c #1D79D8",
"d c #007BE3",
"f c #007FE2",
"g c #2B6ECE",
"h c #2273DD",
"j c #2C78D7",
"k c #306AC9",
"l c #3C79C9",
"z c #3E79CE",
"x c #3A7FD2",
"c c #496CB5",
"v c #4B6DB4",
"b c #6E7AAD",
"n c #4A76C2",
"m c #437DDC",
"M c #487FD4",
"N c #597DCB",
"B c #0081E3",
"V c #0988E8",
"C c #0092F3",
"Z c #0094F4",
"A c #009EFE",
"S c #08ABFF",
"D c #19ADFF",
"F c #3681DE",
"G c #3880D3",
"H c #3B80DC",
"J c #3E86D9",
"K c #24B3FF",
"L c #788ABC",
"P c #438CDE",
"I c #5580D1",
"U c #7D98D9",
"Y c #789CE3",
"T c #56C8FF",
"R c #61CCFF",
"E c #69C6FF",
"W c #8F8DA6",
"Q c #8594B5",
"! c #8EACDF",
"~ c #8BAFE8",
"^ c #A1C0F9",
"/ c None",
/* pixels */
"////////////////",
"///!k@kW!////~//",
"//QGRTSdM!//^.F/",
"/!xEV:eCBj!/~*p/",
"/NKfb!!vwqu!!*y/",
"/JDt!///Yo0rv-a/",
"/PAl!////L+0%>a/",
"/zZ$!///!!nX85y/",
"/IZ>U//H;=-588a/",
"/Q@Z#Q/m<222<;h/",
"//tZB#Q/////////",
"//!+BBnQ////////",
"///~+BBn////////",
"////!+g!////////",
"/////!!/////////",
"////////////////"
};
