/* XPM */
static char *icon_photo[]={
"25 25 64 1",
". c None",
"s c #010101",
"i c #171717",
"j c #292929",
"k c #333233",
"l c #3c3d3c",
"A c #444444",
"B c #4b4b4b",
"C c #535353",
"t c #5b5b5b",
"h c #60605f",
"d c #646464",
"E c #6d6c6b",
"c c #747373",
"F c #797978",
"R c #7c7b7b",
"b c #7f7f7f",
"a c #848484",
"w c #898989",
"K c #8b8b8a",
"H c #8d8d8d",
"0 c #8f8f8c",
"O c #908e8c",
"2 c #91908f",
"Q c #949493",
"M c #989898",
"7 c #9a9794",
"L c #9c9c9b",
"D c #a7a6a6",
"m c #acabaa",
"v c #afafae",
"P c #b3b3b2",
"9 c #b9b9b9",
"8 c #bbb8b5",
"J c #bcbcbc",
"V c #c0bfbe",
"z c #c1c1c1",
"Z c #c2c1bf",
"I c #c4c3c2",
"G c #c5c5c5",
"N c #c8c8c8",
"5 c #cac7c4",
"# c #cccbca",
"x c #cfcfcf",
"S c #d2d0d0",
"p c #d3d3d3",
"o c #d9d8d8",
"r c #dcdcdc",
"q c #e0e0e0",
"3 c #e3e1df",
"W c #e4e3e3",
"U c #e5e5e5",
"6 c #e7e5e3",
"1 c #e8e7e6",
"T c #e9e8e7",
"e c #eaeaea",
"4 c #f0efee",
"n c #f2f2f2",
"u c #f4f4f4",
"Y c #f6f6f6",
"X c #f7f7f7",
"g c #fafafa",
"f c #fcfcfc",
"y c #fefefe",
".........................",
".........................",
".........................",
".........#abcdbef........",
"........ghijklimng.......",
"..fopq..rksijkstruvwwxfy.",
"nzbABCwDEkkkjABkEbjjkBaog",
"pkijACllBttCCCFbCjijCBjDn",
"GiiiijkChAlAAlktaCisijiHq",
"IissssiAACEccEtkBBissssEp",
"JisssslChKLDDMwElBjsssshN",
"JisssiAdOPNppNvQhBksssshz",
"IisssiBRmSTeeUSvRCksssstz",
"GjsssitwVWXggYUZOtksssshz",
"Gjsssit0I1fyyye#2dlsssstz",
"NjsssitaP34gfu3#Fcjsssshz",
"NjssssAa256Te6o7bdsssssCz",
"NjsssssdM2mI582KbisssssBz",
"NjssssssCMLMQQMcissssssBJ",
"NjsssssssjtFRElssssssssCJ",
"oRBBAAAAAABCCCCCCCthhhdwJ",
"TxvQwwwwwwKKHHHHHHH22QLv#",
"nqN9PPPPPPP9999999JJJVIxq",
".n1qrrrrrrrqqqqqqWqWWWUe.",
"........................."};
