/* XPM */
static char *icon_unsubscribe[]={
"16 16 113 2",
"Qt c None",
"#q c #000000",
"#T c #282816",
"#G c #312814",
"#S c #333222",
".m c #353516",
".o c #394600",
".x c #3b3b16",
".I c #3d3d00",
".p c #423516",
".n c #463510",
".S c #5c5c00",
".V c #5d5d00",
"#d c #666666",
"#U c #67645d",
".5 c #696900",
"#. c #6c6c00",
".A c #6f6213",
"#R c #71972f",
"#H c #767344",
".R c #767625",
".K c #797925",
"#P c #7e7a42",
".e c #81817a",
"#w c #818c15",
"#O c #8e785b",
"#K c #8e7e3d",
"#h c #908210",
"#L c #977a3d",
".B c #97972c",
"#J c #990000",
".d c #a3a381",
"#x c #a4a40a",
".W c #a7a734",
".l c #a7a764",
".4 c #aeae34",
"#c c #afaf55",
"#M c #b09f5e",
"#Q c #b09f7d",
"#N c #b7a484",
"#i c #bbb020",
"#l c #bbbb20",
".w c #bcbc64",
".f c #bdbd90",
".c c #bdbdaa",
".0 c #c3c384",
"#y c #c6c644",
"#v c #c6d45a",
".y c #c8c820",
".3 c #caca15",
"#B c #cc0000",
"#F c #d1d16f",
"## c #d2d20e",
"#a c #d7d727",
".2 c #d7d735",
"#m c #d7d752",
"#b c #d7d755",
".1 c #d7d77a",
".9 c #d9d90c",
"#k c #e0f933",
".6 c #e4e40c",
"#g c #e6e652",
".U c #e8e819",
".E c #ebffb2",
".J c #ecec19",
".q c #f3f393",
".k c #f3f3a9",
".# c #f4ffbd",
".b c #f5f5bd",
".Q c #f6f658",
"#j c #f9f922",
".L c #fafa62",
".H c #fafa6b",
"#z c #fcfc63",
"#u c #fcfc6e",
".C c #fcfc7a",
".v c #fcfc96",
"#D c #fcffc4",
".z c #fdfd33",
"#n c #fdfd55",
".s c #ff0000",
"#A c #ff0066",
"#I c #fffa9e",
".7 c #ffff03",
".T c #ffff07",
".8 c #ffff14",
".X c #ffff40",
".P c #ffff61",
"#f c #ffff68",
"#o c #ffff6e",
".G c #ffff7b",
".Y c #ffff7d",
".O c #ffff82",
".M c #ffff87",
".D c #ffff88",
"#e c #ffff8a",
"#t c #ffff8b",
"#p c #ffff9b",
".u c #ffff9e",
"#E c #ffffa3",
"#s c #ffffa4",
".F c #ffffb0",
".Z c #ffffb2",
".r c #ffffb4",
".j c #ffffb7",
".N c #ffffb9",
".t c #ffffbb",
".i c #ffffbd",
".g c #ffffc1",
".a c #ffffc9",
".h c #ffffcb",
"#C c #ffffcc",
"#r c #ffffff",
"QtQtQt.#.a.b.c.d.e.f.b.g.hQtQtQt",
"QtQt.i.j.k.l.m.n.o.p.l.q.r.iQt.s",
"Qt.t.u.v.w.x.y.z.z.A.x.B.C.D.sQt",
".E.F.G.H.B.I.J.z.z.y.I.K.L.s.M.i",
".N.O.P.Q.R.S.J.T.T.U.V.W.s.X.Y.Z",
".0.1.2.3.4.5.6.7.8.9#..s###a#b#c",
"#d.F#e#f#g#h#i#j#k#l.s#m#n#o#p#q",
"#d#r#s#t#u#v#w#x.s.s#y#z#A#B#C#q",
"#d#r#r#D#E#E#F.s#G#H#I#E#B#J#C#q",
"#d#r#r#r#C#C.s#K#L#M#C#C#C#C#C#q",
"#d#r#r#C#C.s#N#O#P#Q#C#C#C#C#C#q",
"#d#r#r#C.s#C#R#S#T#U#C#C#C#C#C#q",
"#d#r.s.s#C#C#C#C#C#C#C#C#C#C#C#q",
"#d.s#C#C#C#C#C#C#C#C#C#C#C#C#C#q",
".s#q#q#q#q#q#q#q#q#q#q#q#q#q#q#q",
"QtQtQtQtQtQtQtQtQtQtQtQtQtQtQtQt"};
