/* XPM */
static char *icon_attach[] = {
/* columns rows colors chars-per-pixel */
"16 16 14 1",
"  c black",
". c #656565",
"X c #7B7B7B",
"o c #000084",
"O c #848484",
"+ c gray61",
"@ c gray74",
"# c #ADADDE",
"$ c #D6D6CE",
"% c gray87",
"& c #D6E7E7",
"* c #E7E7E7",
"= c gray100",
"- c None",
/* pixels */
"----------ooo---",
"-------o-oOOOo--",
"--####o#oO#%- --",
"-&&&&o&oO&&o* --",
"-#&=o$oO==o. O--",
"-#&o$oO==o= O---",
"-#o$oO==o= O%---",
"-o&oOXXo= O.%---",
"O#&oXXoX O=.%---",
"o#&Ooo= O==.%---",
"o#&=X@ O@==.%---",
"o#&== O====.%---",
"Oo   @=====.%---",
"-#&========.%---",
"--@........+%---",
"--%%%%%%%%%-----"
};
