/* XPM */
static char *icon_general[] = {
/* columns rows colors chars-per-pixel */
"16 16 190 2",
"   c black",
".  c #020202",
"X  c gray1",
"o  c #000005",
"O  c #040404",
"+  c #060606",
"@  c #060707",
"#  c #0A0A07",
"$  c #0D0C07",
"%  c #0E0E0D",
"&  c #1A0C00",
"*  c #1C1300",
"=  c #101213",
"-  c #291C00",
";  c #291C02",
":  c #352100",
">  c #352600",
",  c #28313A",
"<  c #473004",
"1  c #614905",
"2  c #6D4800",
"3  c #675320",
"4  c #665B3D",
"5  c #715822",
"6  c #53514E",
"7  c #666143",
"8  c #6A6443",
"9  c #6D694B",
"0  c #726D4D",
"q  c #7E8188",
"w  c #996600",
"e  c #9A6701",
"r  c #9C6903",
"t  c #9E6B05",
"y  c #996A0C",
"u  c #9E7200",
"i  c #937824",
"p  c #9F7625",
"a  c #947A3B",
"s  c #A06D07",
"d  c #A3700A",
"f  c #A5720C",
"g  c #A47905",
"h  c #A8750F",
"j  c #AB7812",
"k  c #AE7B15",
"l  c #B07D17",
"z  c #A97D24",
"x  c #907E47",
"c  c #B3801A",
"v  c #B5821C",
"b  c #B8851F",
"n  c #BA8721",
"m  c #BD8A24",
"M  c #BF8C26",
"N  c #BF8E2B",
"B  c #BD9034",
"V  c #8C8054",
"C  c #939570",
"Z  c #979572",
"A  c #9D957A",
"S  c #9F9C76",
"D  c #A88A46",
"F  c #A99C5F",
"G  c #B39858",
"H  c #AA9864",
"J  c #AF9D68",
"K  c #A79E73",
"L  c #A6A074",
"P  c #B4A26E",
"I  c #B7A775",
"U  c #B8A976",
"Y  c #B2B172",
"T  c #C08D27",
"R  c #C28F29",
"E  c #C5922C",
"W  c #C7942E",
"Q  c #C99630",
"!  c #CA9833",
"~  c #CB9832",
"^  c #CC9933",
"/  c #CBAC6A",
"(  c #CCB168",
")  c #CDBF7A",
"_  c #D9B866",
"`  c #E3BF68",
"'  c #D8CB79",
"]  c #F0C25C",
"[  c #E4D378",
"{  c #ECD073",
"}  c #F3CD67",
"|  c #FFCC66",
" . c #F9CF6B",
".. c #FFD46E",
"X. c #F1D374",
"o. c #F6D771",
"O. c #FFE07A",
"+. c gray56",
"@. c #918E8A",
"#. c #9AAB97",
"$. c #BEB8AB",
"%. c #B1B1B1",
"&. c #B3B3B2",
"*. c #B2B3B9",
"=. c gray75",
"-. c #83B7E0",
";. c #A2B3C2",
":. c #BADFBD",
">. c #88C3FC",
",. c #90CDFD",
"<. c #ABC4D8",
"1. c #A2CAE5",
"2. c #AEDBEE",
"3. c #A4D5FC",
"4. c #A7DAFF",
"5. c #B3DAEC",
"6. c #B1DCFD",
"7. c #BAD9F9",
"8. c #B3E0FF",
"9. c #BAE4FF",
"0. c #BCE0FF",
"q. c #BDEAFF",
"w. c #CEC78C",
"e. c #C9CD8B",
"r. c #C6CA94",
"t. c #CDD99F",
"y. c #D0CA85",
"u. c #DBD886",
"i. c #DDDF8C",
"p. c #C2D9AB",
"a. c #CBDEAF",
"s. c #CDDBAF",
"d. c #C4DDB2",
"f. c #CFDDB0",
"g. c #D2D4A4",
"h. c #D2DDB0",
"j. c #CEE3B7",
"k. c #D1E3B7",
"l. c #D3E3B7",
"z. c #D3E7B7",
"x. c #D3E9BC",
"c. c #D9EDBD",
"v. c #D8EEBD",
"b. c #DBEDBD",
"n. c #DFEFBD",
"m. c #DBF0BD",
"M. c #E9EA8F",
"N. c #F6E380",
"B. c #FAE783",
"V. c #FCE884",
"C. c #FFFF99",
"Z. c #CACBC8",
"A. c #CBCBCA",
"S. c #CECECF",
"D. c #C6D3DE",
"F. c #D1D6DA",
"G. c #D3D7DB",
"H. c #D7D7D9",
"J. c #D8D7D6",
"K. c #CBD9E4",
"L. c #C2E8EF",
"P. c #C1E7FE",
"I. c #C9EAF5",
"U. c #C8ECFF",
"Y. c #CCF3FD",
"T. c #D4E3EB",
"R. c #DBE0E5",
"E. c #DBE6EA",
"W. c #D8EAFD",
"Q. c #DCEEFF",
"!. c #DDEFFF",
"~. c #DEEFFF",
"^. c #DCF0FF",
"/. c #DDF0FF",
"(. c #DEFBFF",
"). c #DFFBFF",
"_. c #E0E1E0",
"`. c #E5E5E6",
"'. c #E6F6F9",
"]. c #E1FBFF",
"[. c #EAF4F7",
"{. c #EDF5FB",
"}. c #E8FAFB",
"|. c #F4F5FA",
" X c #F3FBFC",
".X c azure",
"XX c #F2FFFF",
"oX c #F6FAFE",
"OX c gray100",
"+X c None",
/* pixels */
"+X+X+X+X+X+XA.&.&.=._.*.4 8 =   ",
"+X+X+X6 @.J.S.G.R.`.|.$.5 8 9 # ",
"+X+X+X, @.oXE.[. XT.A.a & 1 i $ ",
"+X+X^ B A '.}.XX}.L.V : > u -   ",
"+X! D.<.I.).).).Y.#.< * g 3 o +X",
"^ ;.5.9.8.P.U.q.5.0 - 2 ( q @ +X",
"! Y -.,.>.3.6.4.1.Z H V G.H.%   ",
"Q V.C L S K I U P D G H J / z   ",
"W O.N K.7.7.W.Q.^.^.^.^.^.{.p + ",
"E ..^ M.p.:.x.n.b.c.m.c.t.i.y + ",
"R | Q C.i.d.d.l.k.z.a.e.[ C.t   ",
"R | E C.B.y.f.f.h.r.' N.o.C.t O ",
"m | m C.O.X.w.s.' { O.o.} C.w   ",
"n | n C.....] _  .......] C.w + ",
"  v l l k j h f y t t t w w   O ",
"    + o   +   + o + +   O +     "
};
