/* XPM */
static char *icon_archive[]={
"16 16 116 2",
"Qt c None",
".v c #044bb0",
"#R c #215bad",
"#Q c #235fb0",
".r c #2769c7",
"#P c #2865b6",
"#O c #2c6abb",
"#X c #3899f3",
".s c #3a80d0",
"#N c #3b7ac4",
".p c #4987d1",
"#W c #56a6f4",
".u c #5b99d7",
".t c #5cabf6",
"#I c #5da5eb",
".f c #61a8eb",
"#K c #61b3ff",
".e c #66aced",
"#J c #68b7ff",
".d c #6eb1ee",
"#H c #70afee",
"#G c #719cd3",
"#A c #72b1e6",
"#L c #72bbff",
".I c #75b1e4",
".c c #75b7f0",
".o c #76b7f0",
"#V c #77b4f4",
"#M c #78beff",
".b c #7bbcf1",
".a c #81c0f2",
".H c #82b1df",
".# c #84c3f3",
".n c #88c3f3",
"#p c #89c9f7",
".6 c #8bcaf9",
"#z c #90b3de",
".U c #90b6df",
"#e c #94b7df",
".5 c #96b9df",
"#o c #98b9df",
"#U c #98c2f5",
".m c #9bcff5",
"#E c #aa6d0d",
"#D c #ab6d0d",
"#F c #ac741d",
".l c #addbf9",
"#C c #b27b23",
".T c #b27d0e",
".G c #b47c0f",
"#T c #b4cff6",
"#B c #b98529",
".k c #bce5fb",
".j c #c7ecfd",
"#S c #c8d8f6",
".h c #cfa10e",
".w c #cfa110",
"#y c #d2a007",
"#q c #d2a614",
"#x c #d4a308",
"#t c #d4a71b",
".7 c #d4aa1f",
"#w c #d5a50b",
"#v c #d5a610",
"#u c #d5a616",
".V c #d5aa1f",
"#f c #d5aa21",
".J c #d5ab22",
"#s c #d8ae28",
".y c #d9b729",
".C c #d9b731",
".B c #d9bc2f",
".z c #d9bf2a",
".A c #d9bf2c",
".x c #dab42a",
".E c #daba35",
".D c #dbb933",
".4 c #deb501",
".F c #debe3b",
".g c #e8d187",
".q c #f11901",
".S c #f3e46d",
".i c #f4ffff",
"#n c #f6cd2c",
"#r c #f7ef82",
".Y c #f8eeca",
".X c #f9f6e5",
".0 c #fae38f",
"#i c #fae8a1",
".Z c #fae9ad",
"#. c #faebb3",
"#g c #faf590",
".8 c #faf591",
".W c #faf693",
"#b c #fbdd64",
".1 c #fbde74",
"## c #fbe797",
"#h c #fbf0bd",
".9 c #fbf3ce",
"#d c #fcd431",
".2 c #fcd958",
"#k c #fcde6d",
"#a c #fce27d",
"#j c #fce485",
"#m c #fdd539",
"#c c #fdd947",
"#l c #fdda51",
".3 c #fed338",
".K c #fefd99",
".R c #fff886",
".Q c #fffa90",
".P c #fffb9a",
".O c #fffda4",
".N c #ffffaf",
".M c #ffffb9",
".L c #ffffc4",
"QtQtQtQtQtQtQt.#.a.b.c.d.e.fQtQt",
"Qt.g.h.h.h.g.f.i.j.k.l.m.n.o.pQt",
"Qt.h.q.q.q.h.r.r.r.r.r.r.s.t.u.v",
"Qt.w.x.y.z.A.B.C.D.E.F.GQt.H.I.v",
"Qt.J.K.L.M.N.O.P.Q.R.S.TQt.U.#.v",
"Qt.V.W.X.Y.Z.0.1.2.3.4.TQt.5.6.v",
"Qt.7.8.9#.###a#b#c#d.4.TQt.5.6.v",
"Qt.7.8.9#.###a#b#c#d.4.TQt#e.6.v",
"Qt#f#g#h#i#j#k#l#m#n.4.TQt#o#p.v",
"Qt#q#r#s#t#u#v#w#x#y.4.TQt#z#A.v",
"Qt#B#C#D#E#F.r.r.r.r.r.r#G#H#I.v",
"QtQtQtQtQtQt.f.i#J#K#L#M#M#I#NQt",
"QtQtQtQtQtQtQt.f#O#P#Q#Q#R.vQtQt",
"QtQtQtQtQtQtQtQtQtQtQt.f.fQtQtQt",
"QtQtQtQtQtQtQtQt.f#M#M.f.f.f.f.v",
"QtQtQtQtQtQtQtQt#M#S#T#U#V#W#X.v"};
