/* XPM */
static char *icon_aboutqt[] = {
/* columns rows colors chars-per-pixel */
"16 16 153 2",
"   c #141A00",
".  c #1C2301",
"X  c #1D2401",
"o  c #1D2601",
"O  c #1E2601",
"+  c #1F2700",
"@  c #1E230A",
"#  c #202606",
"$  c #212A01",
"%  c #222C01",
"&  c #232D02",
"*  c #242F00",
"=  c #242C04",
"-  c #222515",
";  c #292B1E",
":  c #2A2E1A",
">  c #2C3604",
",  c #2C3A00",
"<  c #2F3B00",
"1  c #2C3214",
"2  c #303D00",
"3  c #323E00",
"4  c #2A2D20",
"5  c #323526",
"6  c #334000",
"7  c #374801",
"8  c #384700",
"9  c #384900",
"0  c #394900",
"q  c #384A00",
"w  c #3B4E00",
"e  c #3C4E01",
"r  c #3D4E02",
"t  c #415700",
"y  c #415800",
"u  c #4D5B0F",
"i  c #4E5D0F",
"p  c #475412",
"a  c #485512",
"s  c #495320",
"d  c #4D552E",
"f  c #565C38",
"g  c #466000",
"h  c #486001",
"j  c #4A6000",
"k  c #4A6201",
"l  c #4A6301",
"z  c #4B6301",
"x  c #4E6304",
"c  c #4E6402",
"v  c #4E6B00",
"b  c #4F6C00",
"n  c #506308",
"m  c #516B01",
"M  c #546F01",
"N  c #576C08",
"B  c #556710",
"V  c #547100",
"C  c #547200",
"Z  c #567001",
"A  c #567101",
"S  c #567201",
"D  c #5E7309",
"F  c #5E7C01",
"G  c #5F7F01",
"H  c #5D6A26",
"J  c #5E6B27",
"K  c #5F6A2F",
"L  c #5F6838",
"P  c #607609",
"I  c #627C02",
"U  c #627F02",
"Y  c #65712E",
"T  c #66732E",
"R  c #657231",
"E  c #677331",
"W  c #6B6E5D",
"Q  c #6D7355",
"!  c #5F8001",
"~  c #618001",
"^  c #638201",
"/  c #638601",
"(  c #668106",
")  c #648601",
"_  c #668401",
"`  c #668501",
"'  c #668801",
"]  c #678801",
"[  c #668A01",
"{  c #688501",
"}  c #688601",
"|  c #6A8702",
" . c #698405",
".. c #698801",
"X. c #6A8B01",
"o. c #698F01",
"O. c #6A8C01",
"+. c #6C8805",
"@. c #6E8A04",
"#. c #6E8D02",
"$. c #6E8F01",
"%. c #6F8613",
"&. c #6A9001",
"*. c #708D04",
"=. c #728E0B",
"-. c #728A16",
";. c #758C17",
":. c #709002",
">. c #739204",
",. c #749403",
"<. c #78960B",
"1. c #799905",
"2. c #7C9A0C",
"3. c #7C9C0B",
"4. c #7A9316",
"5. c #738722",
"6. c #788C27",
"7. c #708032",
"8. c #7F952A",
"9. c #7D8944",
"0. c #7E816D",
"q. c magenta",
"w. c #809A16",
"e. c #809B16",
"r. c #819D16",
"t. c #889F2B",
"y. c #809334",
"u. c #829534",
"i. c #89A02A",
"p. c #89A22A",
"a. c #8AA32A",
"s. c #90A342",
"d. c #91A346",
"f. c #9BAF48",
"g. c #97A360",
"h. c #A1AE68",
"j. c #A2AA7D",
"k. c #A3B068",
"l. c #AEB396",
"z. c #BDC694",
"x. c #BFC79A",
"c. c #C0C799",
"v. c #C0CA96",
"b. c #CBD1AF",
"n. c #D4DABA",
"m. c #D6DDBC",
"M. c #DEE3CB",
"N. c #DFE4CB",
"B. c #E3E7D0",
"V. c #E6EAD4",
"C. c #E6EAD5",
"Z. c #EDEFE1",
"A. c None",
/* pixels */
"A.A.A.A.A.A.A.A.A.A.A.A.A.A.A.A.",
"A.A.A.A.A.+ a R T i 6 A.A.A.A.A.",
"A.A.A.A.H c.M.m.v.k.u.P 2 A.A.A.",
"A.A.A.9.Z.C.l.Q f K 6.;. .q A.A.",
"A.A.H Z.B.W ; : 1 @ # N @...A.A.",
"A.+ x.C.0.4 L s.i.%.> . I ..A A.",
"A.p M.b.5 d f.a.e.2.#.+ 7 _ O.A.",
"A.R n.j.- 7.a.B = = $ + * F ] A.",
"A.Y z.g.s 5.r.n + r r q q M F A.",
"A.u h.d.a.4.3.c + &.&.^ A z / A.",
"A.2 u.8.4.<.1.c $ _ ^ A z y ] A.",
"A.A.D -.=.,.,.I y  .A z r C b A.",
"A.A.< ( @.#.&.,   l v r l &.A.A.",
"A.A.A.q _ .. .m w v r C &.A.A.A.",
"A.A.A.A.A.A [ ] ! / [ b A.A.A.A.",
"A.A.A.A.A.A.A.A.A.A.A.A.A.A.A.A."
};
