/* XPM */
static char *icon_up[] = {
/* columns rows colors chars-per-pixel */
"16 16 198 2",
"   c black",
".  c #002700",
"X  c #032D02",
"o  c #133814",
"O  c #004000",
"+  c #034903",
"@  c #0A410B",
"#  c #0C410D",
"$  c #0F410F",
"%  c #085C04",
"&  c #006000",
"*  c #006800",
"=  c #006900",
"-  c #006D00",
";  c #046800",
":  c #046A00",
">  c #007B00",
",  c #077801",
"<  c #057D00",
"1  c #097300",
"2  c #097800",
"3  c #107E03",
"4  c #206F23",
"5  c #217524",
"6  c #356D3E",
"7  c #39733A",
"8  c #387A3B",
"9  c #3E6040",
"0  c #417E4C",
"q  c #4A774D",
"w  c #586957",
"e  c #5F7960",
"r  c #657864",
"t  c #6D7F6C",
"y  c #048300",
"u  c #078100",
"i  c #078B00",
"p  c #0D8901",
"a  c #039700",
"s  c #049500",
"d  c #049600",
"f  c #0A9700",
"g  c #0E9E02",
"h  c #0F9E0C",
"j  c #118601",
"k  c #158F03",
"l  c #198E10",
"z  c #179206",
"x  c #169605",
"c  c #179C0C",
"v  c #199802",
"b  c #169110",
"n  c #01A000",
"m  c #05A300",
"M  c #06A100",
"N  c #05A400",
"B  c #07A900",
"V  c #07AD00",
"C  c #0CA301",
"Z  c #0FA102",
"A  c #08AD00",
"S  c #11A30E",
"D  c #11A900",
"F  c #15AD03",
"G  c #19A002",
"H  c #1FA405",
"J  c #18AA01",
"K  c #1EAA02",
"L  c #1CAF06",
"P  c #15AD16",
"I  c #18AA17",
"U  c #219E00",
"Y  c #239F00",
"T  c #279802",
"R  c #2F9D06",
"E  c #238022",
"W  c #288F2C",
"Q  c #23A103",
"!  c #2AA405",
"~  c #2DA506",
"^  c #2EA50A",
"/  c #2CAB18",
"(  c #2DAD1A",
")  c #2FB10E",
"_  c #31A402",
"`  c #34A100",
"'  c #3CA705",
"]  c #3CA606",
"[  c #3EA707",
"{  c #3AA70C",
"}  c #3EA70C",
"|  c #38A909",
" . c #3AAA0D",
".. c #3AAB0D",
"X. c #36AA11",
"o. c #31AC18",
"O. c #33AD1A",
"+. c #34B20C",
"@. c #35B20C",
"#. c #3DB20F",
"$. c #3FB013",
"%. c #21A420",
"&. c #28AB28",
"*. c #21B223",
"=. c #23B125",
"-. c #2DBA2F",
";. c #2EBB31",
":. c #35AC3A",
">. c #35B024",
",. c #3DB225",
"<. c #35B831",
"1. c #3D8F41",
"2. c #3FBA45",
"3. c #40A709",
"4. c #43AB0B",
"5. c #40AA0C",
"6. c #46AB0C",
"7. c #47AC0F",
"8. c #41AB10",
"9. c #49AF13",
"0. c #4AAD10",
"q. c #4BAF13",
"w. c #4BAF16",
"e. c #47B511",
"r. c #4DB015",
"t. c #50B213",
"y. c #50B116",
"u. c #53B215",
"i. c #52B216",
"p. c #55B116",
"a. c #56B21C",
"s. c #55B81A",
"d. c #56B81A",
"f. c #59B517",
"g. c #59B718",
"h. c #59B41F",
"j. c #5BB71C",
"k. c #5FB71C",
"l. c #4EB122",
"z. c #49B82F",
"x. c #57B522",
"c. c #59B623",
"v. c #5EB728",
"b. c #62B728",
"n. c #62BA2A",
"m. c #64BB2F",
"M. c #67BD34",
"N. c #69BD36",
"B. c #6CBD38",
"V. c #6EBF3D",
"C. c #4CB254",
"Z. c #52A45A",
"A. c #5FB568",
"S. c #658C68",
"D. c #72BA79",
"F. c #6EC03E",
"G. c #4BC74F",
"H. c #66C551",
"J. c #66C959",
"K. c #68C657",
"L. c #72C140",
"P. c #74C141",
"I. c #74C143",
"U. c #7DC44A",
"Y. c #6FD173",
"T. c #7ECB63",
"R. c #7ECE65",
"E. c #8ACB5A",
"W. c #8FCE63",
"Q. c #8BCF68",
"!. c #8ACF6B",
"~. c #95D16D",
"^. c #97D370",
"/. c #9DD778",
"(. c #A1D777",
"). c #84BC8F",
"_. c #92BC99",
"`. c #90C095",
"'. c #93D786",
"]. c #A4D883",
"[. c #ADDA8B",
"{. c #A9DD92",
"}. c #B4E29F",
"|. c #BBE5A9",
" X c #BFE6B0",
".X c #C0C2BF",
"XX c #C2E7AD",
"oX c #C7E7B1",
"OX c #CBEBB7",
"+X c #CCEAB6",
"@X c #C7C9C9",
"#X c #EEF7EB",
"$X c #EFFAEE",
"%X c #F2FBEF",
"&X c #F3FBEF",
"*X c #FFFEFF",
"=X c gray100",
"-X c None",
/* pixels */
"-X-X-X-X-X_.4 0 6 q @X-X-X-X-X-X",
"-X-X-X).E : j k p = X 9 .X-X-X-X",
"-X-XD., T #.@.K J F M = $ r -X-X",
"-XA.< 0.d...! T.z.f Z A < $ S.-X",
"C.b } j.r.~ !.=X%XO.d g V - o -X",
":.v k.0.' ~.=X=X=X%Xo.d C n + w ",
"%.{ u.] ~.=X=X=X=X=X#X( a B & e ",
"h b.6./.=X=X].=X|.}.=X$X( N y X ",
"S U.a.=X=XF.x.=X{.U XX=X'.M i . ",
"I !.m.N.N.` B.=XXXU ^ R.,.D u @ ",
"*.K.W.r.4.] L.=XoX| ~ Q Q L = S.",
"-.<.[.V.r.' I.=X+X5...X.) v % 7 ",
"-X-.J.(.v.4.P.=XOX8.8.8.+.1 8 -X",
"-XG.P H.E.s.r.n.c.a.s.e.< 5 -X-X",
"-X-XY.=.( l.p.f.g.t.R j 1.`.-X-X",
"-X-X-X-XC.&.c x z l W Z.-X-X-X-X"
};
