/* XPM */
static char *icon_newmail[] = {
/* columns rows colors chars-per-pixel */
"16 16 80 1",
"  c black",
". c #0014C5",
"X c #001AC5",
"o c #001AC6",
"O c #001DC6",
"+ c #0022C6",
"@ c #0024C5",
"# c #002BC6",
"$ c #012CC6",
"% c #0035C6",
"& c #0137C6",
"* c #013BC6",
"= c #0141C7",
"- c #0149C7",
"; c #014AC6",
": c #014AC7",
"> c #004CC7",
", c #0050C7",
"< c #015AC7",
"1 c #015BC7",
"2 c #0059C8",
"3 c #0065C7",
"4 c #0167C8",
"5 c #0169C8",
"6 c #016DC8",
"7 c #0171C8",
"8 c #0177C8",
"9 c #007EC9",
"0 c #00B3B3",
"q c #00B4B3",
"w c #0186C8",
"e c #018DC8",
"r c #0195C9",
"t c #009ACA",
"y c #019CC9",
"u c #01A3C9",
"i c #01A5CA",
"p c #01A8CA",
"a c #01A9CA",
"s c #01ABCA",
"d c #01AECA",
"f c #00CFCF",
"g c #00EBEB",
"h c #00FEFE",
"j c #BA0000",
"k c #BA0100",
"l c #D30000",
"z c #ED0000",
"x c red",
"c c #8F8D8D",
"v c #908E8E",
"b c #929091",
"n c #949293",
"m c #959393",
"M c #979595",
"N c #999798",
"B c #9B999A",
"V c #9B9B9B",
"C c #9C9A9A",
"Z c #A19FA0",
"A c #AAA9A9",
"S c #B7B6B6",
"D c #BDBCBD",
"F c #BEBDBD",
"G c #C5C4C4",
"H c #CAC9C9",
"J c #DCDBDB",
"K c gainsboro",
"L c gray87",
"P c #E2E1E1",
"I c #E4E4E4",
"U c #E6E6E6",
"Y c #EAEAEA",
"T c gray94",
"R c #F1F1F1",
"E c #F6F6F6",
"W c gray98",
"Q c #FCFBFC",
"! c gray100",
"~ c None",
/* pixels */
"VVVVVVVVV~~~x~~~",
"V!!!!!!!V~~xxz~~",
"V!VV!VV!V~hxzlj~",
"V!!!!!!!Vhhglj~~",
"V!V!V!V!hhgf0~~~",
"V!!!!!!hhgf0~~~~",
"V!V!VVhhgf0&$@OX",
"V!!!!hhgf0!!!+!.",
"V!V!V gf0!YT#!UX",
"V!!!!  0VFF*!!S+",
"V!VV!VV!VH:!!WZ#",
"V!!!!!!!V1!:!PB&",
"VVVVVVVBV!!!:LV=",
"~~p!t!!WTETUL>M:",
"~~puLGAncccbmM1<",
"~~dsuyrew9876543"
};
