/* XPM */
static char *icon_ok[] = {
/* columns rows colors chars-per-pixel */
"16 16 57 1",
"  c #004600",
". c #005000",
"X c #005D00",
"o c #005F00",
"O c #006000",
"+ c #006200",
"@ c #006C00",
"# c #006E00",
"$ c #007300",
"% c #007400",
"& c #007800",
"* c #007C00",
"= c #008300",
"- c #038203",
"; c #008400",
": c #008600",
"> c #008700",
", c #028902",
"< c #008C00",
"1 c #008D00",
"2 c #058F05",
"3 c #009300",
"4 c #049104",
"5 c #009C00",
"6 c #069800",
"7 c #099B00",
"8 c #089908",
"9 c #00AC00",
"0 c #00AE00",
"q c #00B100",
"w c #00B200",
"e c #06B106",
"r c #00BE00",
"t c #0BBE0B",
"y c #10A010",
"u c #19A719",
"i c #18B918",
"p c #1FBD1F",
"a c #01C001",
"s c #00CA00",
"d c #00CF00",
"f c #00D300",
"g c #00D500",
"h c #00DA00",
"j c #00DB00",
"k c #00DD00",
"l c #1BCE1B",
"z c #00E000",
"x c #00E900",
"c c #00EE00",
"v c #08ED08",
"b c #00F100",
"n c #00F300",
"m c #00FE00",
"M c #0AF50A",
"N c magenta",
"B c None",
/* pixels */
"BBBBBBBBBBBBBBBB",
"BBBBBBBBBBBBBBBB",
"BBBBBBBBBBBBBB67",
"<BBBBBBBBBBBB<<B",
",2BBBBBBBBByu>BB",
"Bi8BBBBBB4lp=BBB",
"Bev>BBB>aMt%BBBB",
"B=nk*$qxm0+BBBBB",
"BXsnggcx3XBBBBBB",
"BB5hhkd>BBBBBBBB",
"BB#sdr#BBBBBBBBB",
"BB.q0XBBBBBBBBBB",
"BBB&XBBBBBBBBBBB",
"BBB BBBBBBBBBBBB",
"BBBBBBBBBBBBBBBB",
"BBBBBBBBBBBBBBBB"
};
