/* XPM */
static char *icon_replynet[] = {
/* columns rows colors chars-per-pixel */
"16 16 77 1",
"  c #000D5E",
". c #0014C5",
"X c #001AC5",
"o c #001AC6",
"O c #001DC6",
"+ c #0022C6",
"@ c #0024C5",
"# c #002BC6",
"$ c #012CC6",
"% c #0035C6",
"& c #0137C6",
"* c #013BC6",
"= c #0141C7",
"- c #0042C6",
"; c #0149C7",
": c #014AC6",
"> c #014AC7",
", c #004CC7",
"< c #014EC7",
"1 c #0050C7",
"2 c #015AC7",
"3 c #015BC7",
"4 c #0065C7",
"5 c #0067C7",
"6 c #0066C8",
"7 c #0167C8",
"8 c #006CC8",
"9 c #016DC8",
"0 c #0171C8",
"q c #0172C8",
"w c #0175C9",
"e c #0177C8",
"r c #017DC8",
"t c #007EC9",
"y c #007FC9",
"u c #017FC8",
"i c #0186C8",
"p c #018AC9",
"a c #018DC8",
"s c #0195C9",
"d c #019CC9",
"f c #019DC9",
"g c #009ECA",
"h c #009FCA",
"j c #019ECA",
"k c #01A1C9",
"l c #01A3C9",
"z c #01A6CA",
"x c #01A8CA",
"c c red",
"v c #908E8E",
"b c #999798",
"n c #9B999A",
"m c #9C9A9A",
"M c #A19FA0",
"N c #B7B6B6",
"B c #BDBCBD",
"V c #BEBDBD",
"C c #CAC9C9",
"Z c #D0CFCF",
"A c #D4D3D3",
"S c gainsboro",
"D c gray87",
"F c #E2E1E1",
"G c #E4E4E4",
"H c #E6E6E6",
"J c #E7E6E7",
"K c #EAEAEA",
"L c #EFEFEF",
"P c gray94",
"I c #F1F1F1",
"U c #F3F3F3",
"Y c #F6F6F6",
"T c gray98",
"R c #FCFBFC",
"E c gray100",
"W c None",
/* pixels */
"WWWWWWWWWWWWWWWW",
"WWgsprq62<-%$@OX",
"WWgEpEEEEEEEE@E.",
"WWgEErEEEEKU$EJX",
"WWgEEUqLSBB*EEN@",
"WWlEEAJ8SC>EETM$",
"WWlEJZrE82E:EFb%",
"WWzE  EEEEEE:Sm*",
"WWz EE RUYUFS1n,",
"cW Ec ccccvccccc",
"c EEcgcairqq9c84",
"ccE cWcWWWWWWcWW",
"c cEcWcccWWWWcWW",
"cW cc cWWWWWWcWW",
"cWW cEcWWWWWWcWW",
"cWWWc ccccWWWcWW"
};
