/* XPM */
static char *icon_bug[]={
"16 16 66 2",
"Qt c None",
".y c #000000",
".L c #010101",
".b c #800000",
".g c #8b1717",
"## c #8c6569",
".f c #964949",
".j c #990000",
".e c #9b4242",
".5 c #9d5857",
".d c #a76160",
".c c #ab6464",
".N c #adaab1",
".2 c #b2a795",
".I c #b5b3b7",
".D c #bababb",
".W c #c0c1c2",
".m c #c1c0c1",
".l c #c1c1c2",
".S c #c1c2c2",
".1 c #c7c7cb",
".k c #c9c9c9",
".z c #cacacb",
".J c #cc0000",
".o c #cccccc",
".n c #cfcfcf",
"#. c #cfcfd1",
".v c #cfcfd2",
".w c #d0d1d1",
".O c #d2d3d2",
".U c #d5d5d4",
".# c #d7d7d6",
".A c #d8d8d8",
".E c #dcdcdc",
".4 c #dcdcdd",
".R c #dcdddd",
".M c #dedede",
".Z c #e0e0e0",
".K c #e1e1e0",
".i c #e3e3e2",
".X c #e6e6e7",
".0 c #e7e7e7",
".h c #e8e8e8",
".7 c #e9cc95",
".H c #eaeaea",
".Y c #ececec",
".a c #eeeeed",
".q c #eeefed",
".Q c #efefef",
".r c #f0f0ee",
".s c #f0f0f1",
".V c #f1f1f1",
".C c #f2f2f2",
".x c #f4f4f4",
".u c #f5f5f5",
".T c #f7f7f7",
".p c #f8f8f8",
".B c #f9f9f9",
".6 c #facb6d",
".P c #fbfbfb",
".F c #fcfcfc",
".8 c #fdcc69",
".3 c #fdfdfc",
".G c #fefefe",
".9 c #ffcc66",
".t c #ffffff",
"Qt.#.a.b.c.d.b.e.f.g.b.b.b.bQtQt",
"Qt.h.b.i.j.b.k.l.m.n.o.o.o.b.bQt",
"Qt.p.b.q.j.b.r.b.s.t.t.t.o.b.b.b",
"Qt.u.b.v.b.j.w.j.x.y.y.t.o.o.o.b",
"QtQt.z.b.j.j.b.A.t.t.t.t.t.t.o.b",
"Qt.B.C.D.b.j.E.F.y.y.y.y.y.t.o.b",
"Qt.b.j.j.j.b.j.b.G.t.t.t.t.t.o.b",
".H.b.I.j.J.j.b.b.K.L.y.y.t.t.o.b",
".j.M.N.J.J.j.j.O.j.P.t.t.t.t.o.b",
".j.Q.b.j.j.j.b.R.b.S.y.y.y.t.o.b",
".T.j.b.J.J.J.b.j.u.U.t.t.t.t.o.b",
".V.b.W.J.J.J.j.b.X.y.y.y.t.t.o.b",
".Y.b.V.j.J.J.Z.b.0.t.t.t.t.t.o.b",
"Qt.jQt.1.b.2.3.b.u.t.t.t.t.t.o.b",
"Qt.j.4Qt.5.6.7.j.8.9.9.9.9.9.o.b",
"Qt#..jQt.b.b.j##.b.b.b.b.b.b.b.b"};
