/* XPM */
static char *icon_subject[] = {
/* columns rows colors chars-per-pixel */
"16 16 17 1",
"  c black",
". c #0E0F0E",
"X c #555555",
"o c #35699D",
"O c #5898D7",
"+ c #95906F",
"@ c #8A8986",
"# c #959593",
"$ c #A09F9C",
"% c #AEADA4",
"& c #BCBBB8",
"* c #97CAFD",
"= c #D4D3D0",
"- c #C3DEF9",
"; c #CCE9FF",
": c gray100",
"> c None",
/* pixels */
">.....>>.....>>>",
".:;;*O..:::::.>>",
".-**Oo.::::::-.>",
".;*.Oo.::::::;.+",
".-**Oo.:#:#:#;.+",
".;*.Oo.::::::;.+",
".-**Oo..;;;::;.+",
".OoooX.+...:;.+>",
".......+>>.;.+>>",
".:=&@$.+>>..+>>>",
".:=&@%.+>>.+>>>>",
">..&..+>>>+>>>>>",
">>>.++>>>>>>>>>>",
">>>.+>>>>>>>>>>>",
">.....+>>>>>>>>>",
">>+++++>>>>>>>>>"
};
