/* XPM */
static char *icon_about[] = {
/* columns rows colors chars-per-pixel */
"16 16 121 2",
"   c black",
".  c #070200",
"X  c #000017",
"o  c #00001B",
"O  c #1E1B15",
"+  c #000A27",
"@  c #000A29",
"#  c #2B2823",
"$  c #152543",
"%  c #12254C",
"&  c #1F2D40",
"*  c #142953",
"=  c #162A51",
"-  c #1F345E",
";  c #0C2F6F",
":  c #2B3441",
">  c #243651",
",  c #2D4670",
"<  c #585650",
"1  c #485572",
"2  c #756E61",
"3  c #7E7973",
"4  c #3159A6",
"5  c #3C63B2",
"6  c #3D68B9",
"7  c #4B6489",
"8  c #49668D",
"9  c #526F9B",
"0  c #4765A3",
"q  c #4A6AA4",
"w  c #486EB9",
"e  c #5175BC",
"r  c #5176BD",
"t  c #5A7FBE",
"y  c #747B83",
"u  c #4C78CD",
"i  c #5177C6",
"p  c #5278C2",
"a  c #7C92BF",
"s  c #5B85D3",
"d  c #6793DA",
"f  c #6B93D1",
"g  c #738FC3",
"h  c #7F99C8",
"j  c #739CDD",
"k  c #7B9DD4",
"l  c #6390E1",
"z  c #6A96E1",
"x  c #709BE2",
"c  c #7BA3DE",
"v  c #7DA3DF",
"b  c #7FA5E3",
"n  c #7AA9E1",
"m  c #7EA9E6",
"M  c #87837E",
"N  c #888075",
"B  c #8A8883",
"V  c #908E8A",
"C  c #9E9C97",
"Z  c #A2A09A",
"A  c #ACA8A3",
"S  c #B0ACA3",
"D  c #B6B4B0",
"F  c #B1B5BF",
"G  c #86A5DB",
"H  c #91A6CE",
"J  c #96A9D0",
"K  c #82AAE2",
"L  c #84A9E2",
"P  c #8CAFE6",
"I  c #89B3E8",
"U  c #8AB2EB",
"Y  c #8AB4EA",
"T  c #8EB8EF",
"R  c #85B2FC",
"E  c #8EBCFF",
"W  c #92B5EC",
"Q  c #9CBFEA",
"!  c #9EBFE9",
"~  c #A8B9DD",
"^  c #A0B8E8",
"/  c #96C3EE",
"(  c #99C1EB",
")  c #9DC7EC",
"_  c #98C5F6",
"`  c #9EC3F2",
"'  c #9ECBFC",
"]  c #B3C2DE",
"[  c #A6C7EC",
"{  c #A3C8EB",
"}  c #A6C8ED",
"|  c #ADC3E8",
" . c #AACEEE",
".. c #A5CAF5",
"X. c #A5CDFF",
"o. c #A8CCF6",
"O. c #A5D1F3",
"+. c #AFD0F1",
"@. c #ACD1FB",
"#. c #B5C6E4",
"$. c #BFD2EE",
"%. c #B1D7FE",
"&. c #C2BFBC",
"*. c #D3CFC9",
"=. c #DAD8D3",
"-. c #DBD9D5",
";. c #CCD4E5",
":. c #C7D9F9",
">. c #CBD9F2",
",. c #CFDDF8",
"<. c #D3DBEB",
"1. c #D5DEF0",
"2. c #D4EFFF",
"3. c #DDE6FB",
"4. c #E0E5F2",
"5. c #F6F5F2",
"6. c #FFFFF9",
"7. c #FFFFFA",
"8. c #FFFFFE",
"9. c gray100",
"0. c None",
/* pixels */
"0.0.0.0.0.0.0.0.0.;.J H ] 0.0.0.",
"0.0.0.0.0.0.0.0.a 4 h g 5 * 0.0.",
"0.0.0.0.0.0.0.0.0 w e e i X 0.0.",
"0.0.0.0.0.0.0.0.0.@ - %   O 0.0.",
"0.0.0.0.0.0.<.~ 3.F 1 0.0.0.0.0.",
"0.0.0.0.^ 6 p #.<.>.s * 0.0.0.0.",
"0.0.,.u +   q G k f z o 0.0.0.0.",
"0.4.;   0.:.x v b K t   0.0.0.0.",
"0.0.< 0.0.l W Y T E   0.0.0.0.0.",
"0.0.0.0.L I ( / ' 8 . 0.0.0.0.0.",
"0.0.0.$.n { ) O._   0.0.0.0.0.0.",
"0.0.0.j Q [  .%.& 0.9.R : 0.0.0.",
"0.0.| K Q } +...  2.d   # 0.0.0.",
"0.0.P I ` o.@.X.b $   0.0.0.0.0.",
"0.0.y , 9 7 >     0.0.0.0.0.0.0.",
"0.0.0.0.0.0.0.0.0.0.0.0.0.0.0.0."
};
