/* XPM */
static char *icon_delmail[] = {
/* columns rows colors chars-per-pixel */
"16 16 80 1",
"  c black",
". c #0014C5",
"X c #001AC5",
"o c #001AC6",
"O c #001DC6",
"+ c #0022C6",
"@ c #0024C5",
"# c #002BC6",
"$ c #012CC6",
"% c #0035C6",
"& c #0137C6",
"* c #013BC6",
"= c #0042C6",
"- c #0149C7",
"; c #014AC6",
": c #014AC7",
"> c #014EC7",
", c #0050C7",
"< c #015AC7",
"1 c #015BC7",
"2 c #0065C7",
"3 c #0067C7",
"4 c #0066C8",
"5 c #006CC8",
"6 c #0171C8",
"7 c #0172C8",
"8 c #0175C9",
"9 c #0177C8",
"0 c #017DC8",
"q c #007EC9",
"w c #007FC9",
"e c #017FC8",
"r c #0186C8",
"t c #018AC9",
"y c #018CC9",
"u c #018DC8",
"i c #0195C9",
"p c #009ACA",
"a c #019CC9",
"s c #019DC9",
"d c #009ECA",
"f c #009FCA",
"g c #019ECA",
"h c #01A1C9",
"j c #01A3C9",
"k c #01A5CA",
"l c #01A6CA",
"z c #01A8CA",
"x c #01A9CA",
"c c #01ABCA",
"v c #01AECA",
"b c red",
"n c #8F8D8D",
"m c #949293",
"M c #9C9A9A",
"N c #A19FA0",
"B c #AAA9A9",
"V c #B7B6B6",
"C c #BDBCBD",
"Z c #BEBDBD",
"A c #C5C4C4",
"S c #CAC9C9",
"D c #D0CFCF",
"F c #D4D3D3",
"G c #DCDBDB",
"H c gainsboro",
"J c gray87",
"K c #E2E1E1",
"L c #E6E6E6",
"P c #E7E6E7",
"I c #EAEAEA",
"U c #ECECEC",
"Y c #EFEFEF",
"T c gray94",
"R c #F1F1F1",
"E c #F3F3F3",
"W c gray98",
"Q c #FCFBFC",
"! c gray100",
"~ c None",
/* pixels */
"~~~~~~~~~~~~~~~~",
"ditw721>=&#+OX~~",
"d!t!!!!!!!!+!.~~",
"d!!w!!!!IE#!PX~~",
"d!!E8YGZZ*!!V+~~",
"h!!FP5JS;!!WN#~~",
"h!PDw!21!-!KM&~~",
"l!Uu!!!!  ;GM  ~",
"l!a!!WE bb , bb ",
"clGABmnn bb bb ~",
"vchdiurw8 bbb ~~",
"~~~~~~~~~~ b ~~~",
"~~~~~~~~~ bbb ~~",
"~~~~~~~~ bb bb ~",
"~~~~~~~ bb ~ bb ",
"~~~~~~~~  ~~~  ~"
};
