/* XPM */
static char *icon_replace[] = {
/* columns rows colors chars-per-pixel */
"16 16 58 1",
"  c #000500",
". c #000600",
"X c #070007",
"o c #080200",
"O c #080004",
"+ c #001100",
"@ c #001200",
"# c #001300",
"$ c #001900",
"% c #0B1304",
"& c #120000",
"* c #140000",
"= c #180000",
"- c #030224",
"; c #000134",
": c #090D32",
"> c #0E0D37",
", c #1B122D",
"< c #002300",
"1 c #002407",
"2 c #220000",
"3 c #210700",
"4 c #270000",
"5 c #2A0000",
"6 c #300000",
"7 c #300809",
"8 c #050E49",
"9 c #061242",
"0 c #0E2044",
"q c #2A2647",
"w c #297E3B",
"e c #591B1C",
"r c #611A18",
"t c #641C1F",
"y c #691515",
"u c #4F7D56",
"i c #3A8243",
"p c #3A854D",
"a c magenta",
"s c #9EF2B6",
"d c #A0F6AF",
"f c #A1FFBA",
"g c #AAE3C0",
"h c #ACF4C4",
"j c #ABFFC5",
"k c #B9FFCD",
"l c #CEA9A3",
"z c #D6B5A4",
"x c #EDB3A7",
"c c #F9B3A9",
"v c #F6B5B3",
"b c #FEB0B0",
"n c #FFB8B1",
"m c #F3BEC4",
"M c #FFC0B9",
"N c #C4F2C1",
"B c #CCFFD9",
"V c None",
/* pixels */
"VVVVVVVVVVVVVVVV",
"VVVVVVVVVVVOVVVV",
"VVVVVVVVVV4m2VVV",
"VVVVVVVVV=vbt5VV",
"VVVVVVVVozcMye&V",
"VVVVVVVVV3xnr6VV",
"VVVVVVVVVV*l7VVV",
"VVVVVVVVVVVXVVVV",
"VVVV VVVVVVVVVVV",
"VVV#N<VVVVVV0VVV",
"VV<kdi$VVVV89:VV",
"V gjfwu VVVV;VVV",
"VV1hsp#VVVVV>VVV",
"VVV#B#VVV,q-VVVV",
"VVVV%VVVVVVVVVVV",
"VVVVVVVVVVVVVVVV"
};
