/* XPM */
static char *icon_cancel[] = {
/* columns rows colors chars-per-pixel */
"16 16 99 2",
"   c #B63C3F",
".  c #BE373A",
"X  c #C53438",
"o  c #CA3336",
"O  c #CB3437",
"+  c #CE3235",
"@  c #CF3236",
"#  c #CC3437",
"$  c #CB3538",
"%  c #CC3538",
"&  c #D23337",
"*  c #D33236",
"=  c #D33337",
"-  c #D43236",
";  c #D73236",
":  c #E33438",
">  c #E33539",
",  c #E43438",
"<  c #E43538",
"1  c #E0383C",
"2  c #EB373B",
"3  c #EB373C",
"4  c #CF3E42",
"5  c #FF3B40",
"6  c #FF3C40",
"7  c #FF3C42",
"8  c #FF3D42",
"9  c #FF3E43",
"0  c #DC5B5E",
"q  c #D55F61",
"w  c #DB6568",
"e  c #DC6F72",
"r  c #E54448",
"t  c #E24A4E",
"y  c #E44A4E",
"u  c #E54A4E",
"i  c #E64A4D",
"p  c #E05154",
"a  c #E35B5E",
"s  c #E4585C",
"d  c #FF4045",
"f  c #FB474C",
"g  c #F8494D",
"h  c #FC484C",
"j  c #FC484D",
"k  c #FC4A4E",
"l  c #F65054",
"z  c #E06C6F",
"x  c #EC6568",
"c  c #EE666A",
"v  c #E86E72",
"b  c #E57A7C",
"n  c #E97478",
"m  c #EA7A7E",
"M  c #F26669",
"N  c #FF6D71",
"B  c #FC7477",
"V  c #FC777A",
"C  c #F87B7E",
"Z  c magenta",
"A  c #E68082",
"S  c #E58D8F",
"D  c #E78D90",
"F  c #E88E90",
"G  c #E69092",
"H  c #E69294",
"J  c #E4989A",
"K  c #EC9093",
"L  c #F28C8F",
"P  c #F29395",
"I  c #EC9FA1",
"U  c #E9A1A3",
"Y  c #EAA4A6",
"T  c #ECB0B1",
"R  c #EEB8BA",
"E  c #EFBABC",
"W  c #F5A8AA",
"Q  c #F0B9BB",
"!  c #F1C4C6",
"~  c #F2C9CA",
"^  c #F2C9CB",
"/  c #F3CCCC",
"(  c #F4CECE",
")  c #FFCECF",
"_  c #F4D5D6",
"`  c #F6DADA",
"'  c #F6DDDE",
"]  c #FED0D1",
"[  c #FAD8D9",
"{  c #F8E2E2",
"}  c #F8E3E4",
"|  c #F8E4E5",
" . c #F9E8E8",
".. c #FAEBEC",
"X. c #FAEDED",
"o. c #FBF2F2",
"O. c #FCF2F2",
"+. c gray100",
"@. c None",
/* pixels */
"@.@.@.@.@.@.@.@.@.@.@.@.@.@.@.@.",
"@.@.@.@.= ; , p 0 , * o @.@.@.@.",
"@.@.@.= u W | o.o.X.Q s + @.@.@.",
"@.@.= x _ { { { { { { ' b @ @.@.",
"@.@ u ! ` O.( ( ( ( ` O./ a X @.",
"@.* K R X.+.X.R R ~ +.+.~ J = @.",
"@.1 U Y Y  .+. .E +.+.T k 6 : @.",
"@.t S G H H } +.+.+.P l 6 3 2 @.",
"@.r v n m M C +.+.) 6 6 9 9 3   ",
"@.< f f f B +.+.) +.] 6 9 d < @.",
"@.* k k V +.+.N 6 ] +.] f k = @.",
"@.o u x [ +.L x x c [ +.L u . @.",
"@.@.# z A I A A A A A I z O @.@.",
"@.@.@.% w D F F F F D w O @.@.@.",
"@.@.@.@.X 4 q e e q 4 . @.@.@.@.",
"@.@.@.@.@.@.@.@.  @.@.@.@.@.@.@."
};
