/* XPM */
static char *icon_strings[] = {
/* columns rows colors chars-per-pixel */
"16 16 48 1",
"  c black",
". c #007B00",
"X c #423952",
"o c #4A425A",
"O c #524A5A",
"+ c #524A63",
"@ c #5A4A6B",
"# c #5A526B",
"$ c #635273",
"% c #635A7B",
"& c #6B5A7B",
"* c blue",
"= c #5A5A8C",
"- c #6B6384",
"; c #636394",
": c #736384",
"> c #73638C",
", c #736B8C",
"< c #7B6B94",
"1 c #737B84",
"2 c #7B739C",
"3 c #008400",
"4 c cyan",
"5 c red",
"6 c #84739C",
"7 c #8473A5",
"8 c #8C7BA5",
"9 c #8C7BAD",
"0 c magenta",
"q c yellow",
"w c #9484AD",
"e c #9484B5",
"r c #9C8CB5",
"t c #9C8CBD",
"y c #A594BD",
"u c #A59CC6",
"i c #AD9CC6",
"p c #A5A5C6",
"a c #B5A5CE",
"s c #B5ADCE",
"d c #BDADD6",
"f c #BDB5D6",
"g c #C6B5D6",
"h c #C6BDDE",
"j c #CEC6DE",
"k c #D6C6E7",
"l c #DECEEF",
"z c None",
/* pixels */
"zzzzzzzzzzzzzzzz",
"kkjhfdsizzzzzzzz",
"jzzfazzyzzzzzzzz",
"zzzaizzzzzzzzzzz",
"zzziyzzzzzzzzzzz",
"zzztrzzzzzzzzzzz",
"zzzw9zzljjpdsaiu",
"zzz87zzj555a444r",
"zzz6<zzg555i444w",
"zzz>:zzsauyrre87",
"zz:-%$ziqqqe.3.<",
"zzzzzzzyqqq83.3>",
"zzzzzzzew862;=1&",
"zzzzzzz8***,000#",
"zzzzzzz6***&000O",
"zzzzzzz,:&%#@+oX"
};
