/* XPM */
static char *icon_sent[] = {
/* columns rows colors chars-per-pixel */
"16 16 9 1",
"  c black",
". c gray23",
"X c #C60000",
"o c #EC0000",
"O c #C09500",
"+ c #ECB700",
"@ c #FFE27D",
"# c #808080",
"$ c None",
/* pixels */
"$$$$$$$$$$$$$$$$",
"$$$$$$$$$$$$$$$$",
"OOOOOOOOOOOOOOOO",
"O@@@@@@@@@@@@@@.",
"O@ #  @@@@@ooo@.",
"O@@@@@@@@@+Xoo@.",
"O@  # @@@+@oXo@.",
"O@@@@@@@@+@@+@@.",
"O@@@@@@@@@++@@@.",
"O@@@@@@ #  # @@.",
"O@@@@@@@@@@@@@@.",
"O@@@@@@ # # @@@.",
"O@@@@@@@@@@@@@@.",
"O...............",
"$$$$$$$$$$$$$$$$",
"$$$$$$$$$$$$$$$$"
};
