/* XPM */
static char *icon_find[] = {
/* columns rows colors chars-per-pixel */
"16 16 68 1",
"  c black",
". c #6E666C",
"X c #6D6864",
"o c #616175",
"O c #7B7B7B",
"+ c #7275A7",
"@ c #7B80AF",
"# c #A57A7F",
"$ c #D27D40",
"% c #FFBB55",
"& c #F9C26F",
"* c #8A8BBE",
"= c #9292B5",
"- c #A38083",
"; c #949AC9",
": c #8EA5CA",
"> c #96BFF1",
", c #A4A4C7",
"< c #A4B4D5",
"1 c #9ED1FF",
"2 c #A0C3EA",
"3 c #A8CDEB",
"4 c #A0D2FF",
"5 c #A1D4FF",
"6 c #A3D6FF",
"7 c #A5D1F8",
"8 c #A9D8FF",
"9 c #A9DCFF",
"0 c #AADDFF",
"q c #B0E3FF",
"w c #B2E5FF",
"e c #B4E7FF",
"r c #B8E5FF",
"t c #B8EBFF",
"y c #BAE9FF",
"u c #B9ECFF",
"i c #BBEEFF",
"p c #BCEFFF",
"a c #FF9482",
"s c #C3EEFF",
"d c #C5F8FF",
"f c #C6F9FF",
"g c #C8FBFF",
"h c #C9FCFF",
"j c #CBFEFF",
"k c #CCFFFF",
"l c #CFFFFF",
"z c #D4F5FF",
"x c #D3F8FF",
"c c #D3FBFF",
"v c #D0FCFF",
"b c #D1FFFF",
"n c #D3FFFF",
"m c #D6FFFF",
"M c #D8F7FF",
"N c #D9FFFF",
"B c #DBFFFF",
"V c #E1FFFF",
"C c #E2FFFF",
"Z c #E5FFFF",
"A c #E6FFFF",
"S c #E9F7FA",
"D c azure",
"F c #F5FDFF",
"G c #F7FFFF",
"H c #F8FFFF",
"J c gray100",
"K c None",
/* pixels */
"KKKKKKKKKKKKKKKK",
"KKKKKKK;:ey0*KKK",
"KKKKKK;HJz6wh2KK",
"KKKKKK3FJ8qwwx+K",
"KKKKKKsM0thblfe.",
"KKKKK;x1wlNCVmf.",
"KKKKKKr6tbCDDCl.",
"KKKKKK7fibCHJF+K",
"KKKKKK,4flNCJS.K",
"KKKKa&O=2ilb<.KK",
"KKKa%$-KK...KKKK",
"KKa%$#oKKKKKKKKK",
"Ka%$#oKKKKKKKKKK",
"K%$#oKKKKKKKKKKK",
"KX#.KKKKKKKKKKKK",
"K..KKKKKKKKKKKKK"
};
