/* XPM */
static char *icon_copy[] = {
/* columns rows colors chars-per-pixel */
"16 16 4 1",
"  c black",
". c #00007B",
"X c gray100",
"o c None",
/* pixels */
"oooooooooooooooo",
"      oooooooooo",
" XXXX  ooooooooo",
" XXXX X oooooooo",
" X  X ......oooo",
" XXXXX.XXXX..ooo",
" X    .XXXX.X.oo",
" XXXXX.X  X....o",
" X    .XXXXXXX.o",
" XXXXX.X     X.o",
"      .XXXXXXX.o",
"oooooo.X     X.o",
"oooooo.XXXXXXX.o",
"oooooo.........o",
"oooooooooooooooo",
"oooooooooooooooo"
};
