/* XPM */
static char *icon_database[]={
"16 16 20 1",
". c None",
"e c #336699",
"k c #4a7db0",
"g c #4b7eb1",
"f c #4c7fb2",
"n c #4d80b3",
"b c #5184b7",
"m c #5285b8",
"d c #5588bb",
"a c #6699cc",
"q c #76a9dc",
"r c #7aade0",
"p c #7baee1",
"o c #7cafe2",
"# c #7db0e3",
"l c #7fb2e5",
"h c #80b3e6",
"i c #81b4e7",
"c c #99ccff",
"j c #ff3300",
"................",
"......#aaaaaa...",
"....b#cccccccde.",
"...bccccccccccce",
"...baacccccccfge",
"...bhijaaaagggke",
"...blhjjaaaabfge",
"jjjjjjjjjaaabfge",
"jjjjjjjjjjaamnne",
"jjjjjjjjjaaamnne",
"...bo#jjaaaamnne",
"...bpojqaaaamnne",
"...brrrqaaaamnne",
"....bbrqaaaamee.",
"......eeeeeee...",
"................"};
