/* XPM */
static char *icon_delitem[] = {
/* columns rows colors chars-per-pixel */
"16 16 6 1",
"  c black",
". c red",
"X c magenta",
"o c #F8FFFF",
"O c gray100",
"+ c None",
/* pixels */
"++++++++++++++++",
"++      ++++++++",
"++ OOOO  +++++++",
"++ OOOO O ++++++",
"++ OOOO    +++++",
"++ OOOOoOO +++++",
"++ OOOOOOO +++++",
"++ OOOoOOO +++++",
"++ OOOOOOO +++++",
"++ OOO          ",
"++ OOO ........ ",
"++ OOO ........ ",
"++ OOO          ",
"++ OOOOOOO +++++",
"++         +++++",
"++++++++++++++++"
};
