/* XPM */
static char *icon_template[]={
"16 16 7 1",
". c None",
"# c #000000",
"b c #7b7900",
"c c #bdbebd",
"e c #c6bebd",
"d c #ffff00",
"a c #ffffff",
".###########....",
".#aaaaaaaaa#....",
".#abcbcbcbc###..",
".#acdadadad#c#..",
".#abadadada#c#..",
".#acdadadad#c#..",
".#abadadada#c#..",
".#acda######c#..",
".#abad#aaa#cc#..",
".#acda#aa#ccc#..",
".#abad#a#cccc#..",
".#acda##ccccc#..",
".######ccccec#..",
"...#ccccccccc#..",
"...###########..",
"................"};
