/* XPM */
static char *icon_decode[] = {
/* columns rows colors chars-per-pixel */
"16 16 110 2",
"   c #1B7E14",
".  c #1B7B1C",
"X  c #138C0A",
"o  c #20A110",
"O  c #39BA1E",
"+  c #49800F",
"@  c #409B17",
"#  c #44972B",
"$  c #4FB429",
"%  c #469843",
"&  c #40984C",
"*  c #429C4C",
"=  c #589D58",
"-  c #7BB356",
";  c #78B953",
":  c #5AC92C",
">  c #60CD3B",
",  c #63CD39",
"<  c #67D136",
"1  c #7C93C2",
"2  c #80B07A",
"3  c #A6A857",
"4  c #C7B63F",
"5  c #DDAF34",
"6  c #DDB536",
"7  c #D1B24A",
"8  c #D0B663",
"9  c #D6E078",
"0  c #EDD26F",
"q  c #E1DA7A",
"w  c #EBD07F",
"e  c #F0C86C",
"r  c #F2D771",
"t  c #93B7F3",
"y  c #96B9F3",
"u  c #9ABBF4",
"i  c #9BBCF4",
"p  c #A5B9DA",
"a  c #A0BFF5",
"s  c #99C19D",
"d  c #BCD5CD",
"f  c #BFDCCE",
"g  c #A4C2F5",
"h  c #A5C3F5",
"j  c #ABC7F6",
"k  c #AFCAF6",
"l  c #B0CAF6",
"z  c #B5CEF7",
"x  c #B9D0F7",
"c  c #BAD1F7",
"v  c #BCD2F8",
"b  c #D1C08A",
"n  c #CBC7AF",
"m  c #CECDBC",
"M  c #D2C8A0",
"N  c #D4CFB0",
"B  c #EFD288",
"V  c #EDDD8F",
"C  c #F8D985",
"Z  c #F1D991",
"A  c #F1DFAE",
"S  c #FDE382",
"D  c #FFEC82",
"F  c #FFFD8F",
"G  c #FBF4A4",
"H  c #FFF3A7",
"J  c #FBFFB5",
"K  c #C0D9C0",
"L  c #CBD0CD",
"P  c #CCD8E8",
"I  c #CDDBEF",
"U  c #C2D6F8",
"Y  c #C2D7F8",
"T  c #C5D9F9",
"R  c #C6D9F9",
"E  c #C7DAF9",
"W  c #C8DAF9",
"Q  c #C9DBF9",
"!  c #CADCF9",
"~  c #CBDCF8",
"^  c #CBDCF9",
"/  c #CCDDFA",
"(  c #CDDEFA",
")  c #CEDEFA",
"_  c #CFDFFA",
"`  c #D2DBE6",
"'  c #D7E3C5",
"]  c #D1E0FA",
"[  c #D2E1FA",
"{  c #D3E1FA",
"}  c #DBE7FB",
"|  c #DCE8FB",
" . c #FBF9C0",
".. c #FFFFC4",
"X. c #FFFFCB",
"o. c #E6EFFC",
"O. c #E7EFFC",
"+. c #ECF3EC",
"@. c #EAF2F6",
"#. c #EFF5FD",
"$. c #F1F6FD",
"%. c #F6F9FE",
"&. c #FDFAF3",
"*. c #FCFBF5",
"=. c #F8FAFE",
"-. c #FBFCFF",
";. c #FDFDFF",
":. c #FEFEFC",
">. c gray100",
",. c None",
/* pixels */
",.v v v x z l j h a u y y y t ,.",
"Y -.>.>.-.1 >.-.-.%.1 o.} _ W y ",
"Y >.>.>.1 p 1 >.-.1 p 1 } { ^ y ",
"Y -.1 >.>.1 >.>.>.-.1 o.} 1 ^ t ",
"Y 1 p 1 >.>.>.K   s @.O.1 p 1 t ",
"Y -.1 >.&.&.@.& o   = d } 1 ) t ",
"x >.>.>.>.>.- . O :   * f { ) t ",
"k -.>.A 5 5 X X @ < $ . & { ^ t ",
"h -.>.5 J J 5 5 X , X 3 5 ] ^ t ",
"u %.%.5 C r 0 C X > X ' 6 ] ^ t ",
"t #.$.5 e V X...; O - 5 N ] W t ",
"t o.o.6 B H F 9 X # q 6 ` ] W t ",
"t } } 5 Z H D X + 4 6 M ( ^ W t ",
"t ] ] 5 w 5 5 7 8 b m I W W R t ",
"t ^ ) 5 5 n L P ^ ^ ^ ^ R R R t ",
",.t t t t t t t t t t t t t t ,."
};
