/* XPM */
static char *icon_golded[] = {
/* columns rows colors chars-per-pixel */
"16 16 90 1",
"  c black",
". c #050300",
"X c #050700",
"o c #090700",
"O c #090A00",
"+ c #090E00",
"@ c #0E0B00",
"# c #0E1500",
"$ c #131100",
"% c #131200",
"& c #131500",
"* c #1C1C00",
"= c #1C2000",
"- c #212300",
"; c #252A00",
": c #252E00",
"> c #262E00",
", c #2A2000",
"< c #2A2700",
"1 c #2A2A00",
"2 c #2F2E00",
"3 c #2F3800",
"4 c #333800",
"5 c #383500",
"6 c #393500",
"7 c #383800",
"8 c #383C00",
"9 c #393C00",
"0 c #383F00",
"q c #3D3C00",
"w c #3D4000",
"e c #474000",
"r c #464600",
"t c #474A00",
"y c #4B4600",
"u c #4C4A00",
"i c #504E00",
"p c #505500",
"a c #595500",
"s c #595700",
"d c #5E5700",
"f c #595800",
"g c #595B00",
"h c #625F00",
"j c #676600",
"k c #676C00",
"l c #6C6900",
"z c #6C6C00",
"x c #6C6D00",
"c c #716A00",
"v c #7A7B00",
"b c #7E7B00",
"n c #7F7B00",
"m c #7F7E00",
"M c #7F7F00",
"N c #837B00",
"B c #837E00",
"V c #837F00",
"C c #848600",
"Z c #838900",
"A c #888600",
"S c #888D00",
"D c #8D8900",
"F c #8C8D00",
"G c #8D9000",
"H c #968C00",
"J c #968D00",
"K c #919000",
"L c #929000",
"P c #9BA200",
"I c #9FA500",
"U c #A0A200",
"Y c #A9A900",
"T c #A9AD00",
"R c #AEAD00",
"E c #AEB000",
"W c #AEB400",
"Q c #B7BB00",
"! c #B7BE00",
"~ c #BCBB00",
"^ c #C1C900",
"/ c #C6C900",
"( c #CAC900",
") c #CACD00",
"_ c #CFD000",
"` c #CFD400",
"' c #D4D700",
"] c #D4DB00",
"[ c #D4DF00",
"{ c None",
/* pixels */
"{{{{+1dlls1+{{{{",
"{{{1FQ////QH1{{{",
"{{q~RBt34rmEQq{{",
"{q~m-pZIPvw-v~q{",
">~n*W])YY)[UXMQ1",
"nQ>T]A@  on7 1~M",
"EH0[QX    .  +LE",
"/xf]C  O1&##+ x/",
"/zp]D  %]]']u x/",
"EJ2](% Oq,h]6+HR",
"m~>A[E7X.1S]i1QM",
">~NOB][]]]`G1M~1",
"{qQn==scje&=N~0{",
"{{q~Rny55ynR~7{{",
"{{{>G~/^^^~L>{{{",
"{{{{+;dkzg>O{{{{"
};
