/* XPM */
static char *icon_fips[] = {
/* columns rows colors chars-per-pixel */
"15 15 179 2",
"   c black",
".  c #305E06",
"X  c #3B5E28",
"o  c #3A5C3B",
"O  c #3E5C38",
"+  c #2F703A",
"@  c #287B33",
"#  c #3F6D3F",
"$  c #337B32",
"%  c #197C46",
"&  c #127F5F",
"*  c #097F65",
"=  c #186B73",
"-  c #1B7E69",
";  c #3A5C4B",
":  c #26654A",
">  c #2D7B51",
",  c #316A49",
"<  c #306D4C",
"1  c #396846",
"2  c #366551",
"3  c #3D6952",
"4  c #3F734C",
"5  c #3C7356",
"6  c #3F7158",
"7  c #3E7852",
"8  c #216566",
"9  c #3A6B68",
"0  c #3C7B72",
"q  c #415309",
"w  c #555614",
"e  c #5C4227",
"r  c #534D33",
"t  c #544D31",
"y  c #5A5E3D",
"u  c #5D601D",
"i  c #486C2C",
"p  c #4F6536",
"a  c #4A6F3C",
"s  c #536D30",
"d  c #53693B",
"f  c #536D3E",
"g  c #57752B",
"h  c #5B772A",
"j  c #507339",
"k  c #624E36",
"l  c #695F2A",
"z  c #64543B",
"x  c #655933",
"c  c #6B5F35",
"v  c #60661C",
"b  c #616D25",
"n  c #6E7F31",
"m  c #4A5D4A",
"M  c #5E5544",
"N  c #5B5E4B",
"B  c #475860",
"V  c #406748",
"C  c #45654E",
"Z  c #466D41",
"A  c #496244",
"S  c #496149",
"D  c #4F6A41",
"F  c #446957",
"G  c #4F6451",
"H  c #496559",
"J  c #4B7B4B",
"K  c #447152",
"L  c #467555",
"P  c #4F7755",
"I  c #516444",
"U  c #576C43",
"Y  c #536A4D",
"T  c #596358",
"R  c #416961",
"E  c #4C7C66",
"W  c #665F4C",
"Q  c #7C5E44",
"!  c #646249",
"~  c #606A45",
"^  c #646F47",
"/  c #6B6942",
"(  c #656654",
")  c #666958",
"_  c #6B6253",
"`  c #6D6653",
"'  c #7B7A41",
"]  c #7F785B",
"[  c #6F6862",
"{  c #1F844A",
"}  c #028164",
"|  c #00806A",
" . c #00846A",
".. c #058C6E",
"X. c #068373",
"o. c #00817B",
"O. c #008F7C",
"+. c #00927E",
"@. c #0D997F",
"#. c #18866B",
"$. c #1D8471",
"%. c #3E8155",
"&. c #208769",
"*. c #39806E",
"=. c #3A826E",
"-. c #368477",
";. c #6E9C54",
":. c #608B70",
">. c #1E8782",
",. c #00A59A",
"<. c #28DABA",
"1. c #24E7BF",
"2. c #2DE2BF",
"3. c #00DEC5",
"4. c #0FDCDF",
"5. c #13DAC3",
"6. c #00EAC7",
"7. c #0AFCD6",
"8. c #03F6E2",
"9. c #00F9E4",
"0. c #00FFE7",
"q. c #07FFE8",
"w. c #0EFFEB",
"e. c #04F8F6",
"r. c #13EFE5",
"t. c #14EFE9",
"y. c #13FFE9",
"u. c #1FF9E0",
"i. c #1DFAE9",
"p. c #16FFF0",
"a. c #1CFFF5",
"s. c #29E2D0",
"d. c #2BF2D1",
"f. c #28FAD5",
"g. c #35E8CB",
"h. c #38E7C8",
"j. c #34E2D8",
"k. c #35EADB",
"l. c #3FF2CA",
"z. c #2CEBE3",
"x. c #26FFE6",
"c. c #2EFFE1",
"v. c #24F9F3",
"b. c #29FFF5",
"n. c #33FFEF",
"m. c #33F5F4",
"M. c #34FFF6",
"N. c #3CFFF8",
"B. c #6FBAA5",
"V. c #71B6B1",
"C. c #57CEBB",
"Z. c #7BD58F",
"A. c #76C7A6",
"S. c #7EDFBE",
"D. c #49D0C1",
"F. c #47E4CF",
"G. c #4FE2C5",
"H. c #4EEDCD",
"J. c #47E5D6",
"K. c #4CEADC",
"L. c #45FEDC",
"P. c #59F3CF",
"I. c #52F2D0",
"U. c #48EBF2",
"Y. c #41FDEC",
"T. c #69CDC3",
"R. c #67D5C8",
"E. c #79D3CA",
"W. c #74DBE4",
"Q. c #63E0C2",
"!. c #8C6554",
"~. c #877648",
"^. c #96BCB1",
"/. c #84CD95",
"(. c #85D1B5",
"). c #90C4AD",
"_. c #92C8B0",
"`. c #AAC49D",
"'. c None",
/* pixels */
"'.'.'.'.'.$.| #.V ^ '.'.'.'.'.",
"'.'.'.S 6 (.S.A.A y d U '.'.'.",
"'.'.` ! ~ p X f ] r `.D t '.'.",
"'.I N W x l u ' e M :.< K G '.",
"'.%.F T z ~.v w Q [ V.X.I.} '.",
"@ /._.H ( / q n c m >.j.x.2.2 ",
"h i 4 ).; o ;.. g +  .N.3.L.# ",
"b s 1 *.E.- % Z.$ { h.i.p.g.J ",
"j Z R = U.m.+.G.& Q.Y.r.v.K., ",
"a P 9 W.4.e.t.z.J.O.s.k.o.T.E ",
"'.O *.D.M.q.a.,.b.5.H.&.C ) '.",
"'.Y B.@.f.6.y.8.9.u...5 k !.'.",
"'.'.0 C.<.c.7.w.0.n.R.^._ '.'.",
"'.'.'.-.* P.l.1.d.F.8 B '.'.'.",
"'.'.'.'.'.3 L 7 > : '.'.'.'.'."
};
