/* XPM */
static char *icon_flag[] = {
/* columns rows colors chars-per-pixel */
"16 16 44 1",
"  c black",
". c #101010",
"X c #202020",
"o c gray19",
"O c gray25",
"+ c #505050",
"@ c #7D584E",
"# c #745A54",
"$ c #606060",
"% c gray44",
"& c #885548",
"* c #887B78",
"= c #FF3300",
"- c #FF3401",
"; c #FF3503",
": c #FF3604",
"> c #FF3705",
", c #FF3806",
"< c #FF3907",
"1 c #FF3908",
"2 c #FF3B0A",
"3 c #FF3C0B",
"4 c #FF3D0C",
"5 c #FB471A",
"6 c #FF4719",
"7 c #EB522C",
"8 c #EF5630",
"9 c #FF4F23",
"0 c #FC5328",
"q c #F75D37",
"w c #FF5B32",
"e c #FF6038",
"r c #D85F41",
"t c #FF6E4A",
"y c #DB826B",
"u c #F78D72",
"i c #808080",
"p c gray56",
"a c #9F9F9F",
"s c #AFAFAF",
"d c gray75",
"f c #C39083",
"g c #CF9C8F",
"h c None",
/* pixels */
"hhhhhhhhhhhhhhhh",
"dshhhhhhhhhhhhhh",
"d%hiOO%hhhhhhhhh",
"h.OruegOhhhhhhhh",
"hot=2<27dhhhhhhh",
"hX9>6;=fhhhhhhhh",
"hO=>0==%ahhhhhhh",
"h+8&+OOO%Oshhhhh",
"hiOhhphiwq%oOOO.",
"hpphha#5>;222yXh",
"hdihhi====3q$Ohh",
"hd%hha@*i$X+dhhh",
"hhOhhhhddhhhhhhh",
"hhOhhhhhhhhhhhhh",
"hhohhhhhhhhhhhhh",
"hhhhhhhhhhhhhhhh"
};
