/* XPM */
static char *icon_print[] = {
/* columns rows colors chars-per-pixel */
"16 16 122 2",
"   c black",
".  c gray36",
"X  c #626261",
"o  c #656360",
"O  c #676767",
"+  c #666A6E",
"@  c #6B6865",
"#  c #6C6966",
"$  c #6C6C6C",
"%  c #6E6E6C",
"&  c #6F6F6F",
"*  c #716F72",
"=  c #73726F",
"-  c gray44",
";  c #727272",
":  c #777776",
">  c #777777",
",  c #757878",
"<  c #74787D",
"1  c gray47",
"2  c #797979",
"3  c gray48",
"4  c #7C7A7C",
"5  c #7C7C7C",
"6  c gray49",
"7  c #7F7E7C",
"8  c #7E7E7E",
"9  c gray50",
"0  c #4BC02D",
"q  c #7CCC72",
"w  c #7B8896",
"e  c #808080",
"r  c #818181",
"t  c gray51",
"y  c #838383",
"u  c #858085",
"i  c #858482",
"p  c #848484",
"a  c #8B8886",
"s  c #888888",
"d  c #8A898A",
"f  c #8A8A89",
"g  c gray54",
"h  c gray55",
"j  c #8D8D8D",
"k  c #8E8E8D",
"l  c #958E96",
"z  c #929292",
"x  c #979797",
"c  c #9B9B9B",
"v  c gray61",
"b  c #9D9F9F",
"n  c #9F9F9F",
"m  c #9AA0A6",
"M  c #9CAAB8",
"N  c gray63",
"B  c #A3A2A1",
"V  c #A2A2A2",
"C  c #A2A2A3",
"Z  c #A4A3A2",
"A  c #A4A4A4",
"S  c #A5A5A5",
"D  c #A2A6AA",
"F  c #ADA4AF",
"G  c gray66",
"H  c gray67",
"J  c #ACACAC",
"K  c #AEADAD",
"L  c #B0AEB1",
"P  c gray70",
"I  c gray72",
"U  c #BBBAB8",
"Y  c gray73",
"T  c gray75",
"R  c #9DB3CA",
"E  c #A7C6E4",
"W  c #C3C3C3",
"Q  c gray77",
"!  c #C6C6C6",
"~  c gray80",
"^  c #CDCDCD",
"/  c #D5D4D4",
"(  c #D9D2DB",
")  c gainsboro",
"_  c #DDDDDD",
"`  c gray87",
"'  c #DFDFDF",
"]  c #D1DBE5",
"[  c #C7E7FF",
"{  c #CCEBFF",
"}  c #CBF0FF",
"|  c #D0EAFF",
" . c #D4E8FF",
".. c #D6EEFF",
"X. c #DAEBFF",
"o. c #DAF3FF",
"O. c gray88",
"+. c #E1E0E0",
"@. c #E2E2E2",
"#. c gray89",
"$. c #E6E5E7",
"%. c gray91",
"&. c #E9E9E9",
"*. c #EAEAEA",
"=. c #EBEAEA",
"-. c gray92",
";. c #EEEEEE",
":. c #E3F2FF",
">. c #E5F3FF",
",. c #E8F3FF",
"<. c #EAFDFF",
"1. c #EEF8FF",
"2. c #F1F1F1",
"3. c #F3F3F3",
"4. c gray96",
"5. c #F9F9F9",
"6. c gray99",
"7. c #FDFDFD",
"8. c #FFFCFF",
"9. c #FEFEFE",
"0. c gray100",
"q. c None",
/* pixels */
"q.q.q.q.q.q.q.q.q.q.q.q.q.q.q.q.",
"q.q.H t : a B b X q.q.q.q.q.q.q.",
"q.q.S =.0.0.0.0.D % q.q.q.q.q.q.",
"q.q.n C 0.1.,.>.<., q.q.q.q.q.q.",
"q.q.q.i ] :.X. ...M ; q.q.q.q.q.",
"q.q.q.7 m o.| { { E o j . q.q.q.",
"q.q.H h < [ R w + @ K ! z a q.q.",
"q.S I / C @ a U @.4.5.0.$.I 4 q.",
"q.G ;.' ) %.0.5.3.2.-.( 0 q y q.",
"q.C 4.=.@.) ) %._ ~ Y L F l * q.",
"q.S O.~ ) -.=.T K C a 6 3 t 3 q.",
"q.H 0.0.@.W W z 3 5 6 - O 3 ; q.",
"q.c W 0.0.0.0.c 3 $ > t 3 3 3 q.",
"q.q.x t Z ] 0.v 3 t t 3 j q.q.q.",
"q.q.q.q.a - p 3 > t q.q.q.q.q.q.",
"q.q.q.q.q.q.q.q.q.q.q.q.q.q.q.q."
};
