/* XPM */
static char *icon_unread[]={
"16 16 155 2",
"Qt c None",
"aw c #002700",
"aq c #006000",
"#L c #006900",
"a# c #007b00",
"aj c #01a000",
"#X c #032d02",
"ar c #034903",
"a. c #039700",
"#c c #046a00",
"ap c #048300",
"#U c #049500",
".D c #057d00",
"ah c #05a400",
"#W c #06a100",
".Q c #077801",
"an c #078100",
"ao c #078b00",
"ai c #07a900",
"am c #085c04",
"#5 c #08ad00",
"ad c #097300",
"#J c #0a9700",
"av c #0c410d",
"ag c #0ca301",
"#B c #0d8901",
"#4 c #0e9e02",
"aa c #0f410f",
".d c #0f9e0c",
"#V c #0fa102",
"#6 c #107e03",
"#n c #118601",
".c c #11a30e",
"as c #133814",
"#t c #158f03",
"#K c #15ad03",
".t c #15ad16",
".q c #169110",
"#o c #169605",
"#v c #179206",
"#e c #179c0c",
"#A c #18aa01",
".b c #18aa17",
"#D c #198e10",
".p c #199802",
"ae c #19a002",
"af c #1caf06",
"#s c #1eaa02",
"#8 c #1fa405",
".3 c #217524",
".e c #21a420",
".a c #21b223",
"#H c #239f00",
".F c #23b125",
".2 c #279802",
"#N c #288f2c",
".4 c #28ab28",
"#l c #2aa405",
"#3 c #2cab18",
"#R c #2da506",
"#T c #2dad1a",
".i c #2dba2f",
"#S c #2ea50a",
".# c #2ebb31",
"#O c #2f9d06",
"## c #31a402",
"#I c #33ad1a",
".8 c #34a100",
"#7 c #34b20c",
"#C c #356d3e",
".f c #35ac3a",
".T c #35b024",
"#m c #35b20c",
".j c #35b831",
"#2 c #36aa11",
"al c #387a3b",
"#G c #38a909",
"au c #39733a",
".o c #3aa70c",
"#a c #3aaa0d",
".0 c #3ca705",
"#b c #3db20f",
"#9 c #3db225",
".N c #3ea707",
".C c #3ea70c",
"#1 c #3fb013",
".S c #3fba45",
".7 c #40a709",
"#F c #40aa0c",
"#u c #417e4c",
"#Q c #41ab10",
".X c #43ab0b",
".z c #46ab0c",
"#0 c #47b511",
"#z c #49b82f",
"#M c #4a774d",
"#E c #4aad10",
".O c #4baf13",
".J c #4baf16",
".h c #4bc74f",
".g c #4cb254",
".W c #4db015",
".5 c #4eb122",
".A c #50b116",
"#Z c #52a45a",
"#f c #55b116",
"#P c #55b81a",
".y c #56b21c",
".1 c #56b81a",
"#j c #57b522",
"ay c #586957",
".6 c #59b41f",
"#p c #59b517",
"#x c #59b623",
"#w c #59b718",
".P c #5bb71c",
".V c #5eb728",
"ax c #5f7960",
".r c #5fb568",
".B c #5fb71c",
".n c #62b728",
"#q c #62ba2a",
".x c #64bb2f",
"ak c #657864",
"at c #658c68",
".G c #66c551",
".u c #66c959",
".K c #67bd34",
".k c #68c657",
".Y c #69bd36",
"#i c #6cbd38",
".I c #6ebf3d",
".9 c #6ec03e",
".s c #6fd173",
".E c #72ba79",
"#h c #72c140",
"#g c #74c141",
".m c #7dc44a",
"#r c #7ecb63",
".R c #84bc8f",
".U c #8acb5a",
".l c #8bcf68",
".w c #8fce63",
"#d c #90c095",
"ac c #92bc99",
".Z c #95d16d",
"#. c #97d370",
".M c #9dd778",
".H c #a1d777",
".v c #adda8b",
"ab c #c0c2bf",
"#Y c #c7c9c9",
"#k c #f8a594",
".L c #ff0000",
"#y c #ff5656",
"QtQtQtQt.#.a.b.c.d.e.f.gQtQtQtQt",
"QtQt.h.i.j.k.l.m.n.o.p.q.rQtQtQt",
"Qt.s.t.u.v.w.x.y.z.A.B.C.D.EQtQt",
"Qt.F.G.H.I.J.K.L.M.N.O.P.O.Q.RQt",
".S.T.U.V.W.X.Y.L.L.Z.0.J.1.2.3Qt",
".4.5.6.7.N.N.8.9.L.L#.###a#b#c#d",
"#e#f.A#g#g#h#i#j#k.L.L.l#l#m#n.3",
"#o#p#q.L.L.L.L.L.L.L.L.L#r#s#t#u",
"#v#w#x#k#k#k#k#k#k.L.L#y#z#A#B#C",
"#D.W.A#E#F#G#H#H#k.L#y#I#J#K#L#M",
"#N#O#P#Q#a#R#S#k.L#y#T#U#V#W#X#Y",
"#Z#n#0#1#2#H#k.L.L#3#U#4#5#c#CQt",
"Qt#N#6#1#7#8#9#k#Ta.#V#5a#aaabQt",
"Qtac.3adaeafagahahaiaj#caaakQtQt",
"QtQtQtalam#LanaoapaqarasatQtQtQt",
"QtQtQtQtauatavaw#XaxayQtQtQtQtQt"};
