/* XPM */
static char *icon_date[] = {
/* columns rows colors chars-per-pixel */
"16 16 17 1",
"  c black",
". c #800000",
"X c #C00000",
"o c red",
"O c #C05800",
"+ c #808000",
"@ c #FFA858",
"# c #C0C000",
"$ c yellow",
"% c #808080",
"& c #A0A0A0",
"* c #FFDCA8",
"= c #C0C0C0",
"- c #FFC0C0",
"; c #FFFFC0",
": c gray100",
"> c None",
/* pixels */
">>>>>>>        >",
">>>>>> *@OOOO.. ",
">>>>>> OO%::%OO ",
">>>>>>> O::::O >",
">       O::::O >",
" &&&&&&%O=::=O >",
" &&&&&&%O $# O >",
" ::::::=O $# O >",
" :oooo:=O ;= O >",
" :o:-o:=O ;= O >",
" ::-oo:=O=$#=X >",
" :o:-o:=O$$#+O >",
" :oooo:=@$$#+. >",
" ::::::=O%$#%OO ",
" ======%@@OOO.. ",
">              >"
};
