/* XPM */
static char *icon_geek[]={
"16 16 3 1",
". c None",
"a c #c00000",
"# c #ff0000",
".....#####......",
"...#########....",
"..###aaaaa###...",
".###a.....a###..",
".##a.......a###.",
"##a.........aaa.",
"##a.............",
"##a.....#######.",
"##a.....#######.",
"##a.....aaaaa##.",
"a##.........##a.",
".###.......###..",
".a###.....###a..",
"..a#########a...",
"...aa#####aa....",
".....aaaaa......"};
