/* XPM */
static char *icon_reply[] = {
/* columns rows colors chars-per-pixel */
"16 16 84 1",
"  c #000D5E",
". c #0014C5",
"X c #001AC5",
"o c #001AC6",
"O c #001DC6",
"+ c #0022C6",
"@ c #0024C5",
"# c #002BC6",
"$ c #012CC6",
"% c #0035C6",
"& c #0137C6",
"* c #013BC6",
"= c #0141C7",
"- c #0042C6",
"; c #0149C7",
": c #014AC6",
"> c #014AC7",
", c #004CC7",
"< c #014EC7",
"1 c #0050C7",
"2 c #015AC7",
"3 c #015BC7",
"4 c #0059C8",
"5 c #0065C7",
"6 c #0067C7",
"7 c #0066C8",
"8 c #0167C8",
"9 c #0169C8",
"0 c #006CC8",
"q c #016DC8",
"w c #0171C8",
"e c #0172C8",
"r c #0175C9",
"t c #0177C8",
"y c #017DC8",
"u c #007EC9",
"i c #007FC9",
"p c #017FC8",
"a c #0186C8",
"s c #018AC9",
"d c #018DC8",
"f c #0195C9",
"g c #019CC9",
"h c #019DC9",
"j c #009ECA",
"k c #009FCA",
"l c #019ECA",
"z c #01A1C9",
"x c #01A3C9",
"c c #01A6CA",
"v c #01A8CA",
"b c #8F8D8D",
"n c #908E8E",
"m c #929091",
"M c #949293",
"N c #959393",
"B c #979595",
"V c #999798",
"C c #9B999A",
"Z c #9C9A9A",
"A c #A19FA0",
"S c #AAA9A9",
"D c #B7B6B6",
"F c #BDBCBD",
"G c #BEBDBD",
"H c #CAC9C9",
"J c #D0CFCF",
"K c #D4D3D3",
"L c gainsboro",
"P c gray87",
"I c #E2E1E1",
"U c #E4E4E4",
"Y c #E6E6E6",
"T c #E7E6E7",
"R c #EAEAEA",
"E c #EFEFEF",
"W c gray94",
"Q c #F1F1F1",
"! c #F3F3F3",
"~ c #F6F6F6",
"^ c gray98",
"/ c #FCFBFC",
"( c gray100",
") c None",
/* pixels */
"))))))))))))))))",
"))jfsye72<-%$@OX",
"))j(s((((((((@(.",
"))j((y((((R!$(TX",
"))j((!eELFF*((D@",
"))x((KT0LH>((^A$",
"))x(TJy(02(:(IV%",
"))c(  ((((((:LZ*",
"))c (( /!~!UL1V<",
")) (( SNbbbmNB22",
") (( gfsayee0077",
" (( ))))))))))))",
") (( )))))))))))",
")) (( ))))))))))",
"))) (( )))))))))",
"))))  ))))))))))"
};
