/* XPM */
static char *icon_left[] = {
/* columns rows colors chars-per-pixel */
"16 16 202 2",
"   c black",
".  c #002800",
"X  c #012B01",
"o  c #133C14",
"O  c #004A00",
"+  c #034A02",
"@  c #0C430D",
"#  c #094909",
"$  c #0F490F",
"%  c #095409",
"&  c #0A5C09",
"*  c #184E18",
"=  c #006600",
"-  c #056700",
";  c #006A00",
":  c #036C00",
">  c #0A6F02",
",  c #007200",
"<  c #027000",
"1  c #007B00",
"2  c #077D00",
"3  c #0A7300",
"4  c #1F6E1F",
"5  c #137E0C",
"6  c #2A7B2F",
"7  c #39623C",
"8  c #39743A",
"9  c #437445",
"0  c #5E6E5D",
"q  c #547054",
"w  c #5F745E",
"e  c #657564",
"r  c #038400",
"t  c #078B00",
"y  c #098100",
"u  c #0A8A02",
"i  c #088E01",
"p  c #0E8A01",
"a  c #069E00",
"s  c #0F970A",
"d  c #0D9C00",
"f  c #0D9E01",
"g  c #0F9E0B",
"h  c #118003",
"j  c #148902",
"k  c #158E04",
"l  c #1C8E01",
"z  c #1B8F17",
"x  c #13910D",
"c  c #119800",
"v  c #119A00",
"b  c #129E01",
"n  c #169901",
"m  c #159E01",
"M  c #169E01",
"N  c #179E01",
"B  c #169F04",
"V  c #1A9802",
"C  c #1B9E01",
"Z  c #1F9E00",
"A  c #01A100",
"S  c #07A300",
"D  c #05A400",
"F  c #07AA00",
"G  c #07AF00",
"H  c #0AA100",
"J  c #09AD00",
"K  c #11A003",
"L  c #10A502",
"P  c #16A003",
"I  c #11A40F",
"U  c #13AC02",
"Y  c #15A900",
"T  c #14AC03",
"R  c #1AA700",
"E  c #1CA001",
"W  c #1DA403",
"Q  c #1CAD05",
"!  c #1FA31C",
"~  c #1AAB19",
"^  c #1AB01C",
"/  c #1FB423",
"(  c #269802",
")  c #258122",
"_  c #2FA404",
"`  c #2DA508",
"'  c #2DAB07",
"]  c #24A91C",
"[  c #38A503",
"{  c #3AA403",
"}  c #3CA606",
"|  c #3EA607",
" . c #38A608",
".. c #3EA708",
"X. c #38A90A",
"o. c #3EA909",
"O. c #3FA90E",
"+. c #3DAC0F",
"@. c #36AA18",
"#. c #31B20A",
"$. c #32B50E",
"%. c #3AB10D",
"&. c #33AA39",
"*. c #30B82D",
"=. c #35B238",
"-. c #33BC35",
";. c #3FC241",
":. c #41A90C",
">. c #40AB0C",
",. c #42AA0C",
"<. c #47AC0B",
"1. c #45AC0D",
"2. c #49AD0E",
"3. c #43AA10",
"4. c #45AD10",
"5. c #4DAF13",
"6. c #4CAF14",
"7. c #4DAF16",
"8. c #46B416",
"9. c #43B11E",
"0. c #4EB016",
"q. c #4FB016",
"w. c #51B213",
"e. c #52B113",
"r. c #54B416",
"t. c #50B219",
"y. c #55B218",
"u. c #54B21B",
"i. c #58B51F",
"p. c #5CB71C",
"a. c #58BA1B",
"s. c #5CB81D",
"d. c #5DBC1C",
"f. c #41B835",
"g. c #51B728",
"h. c #58B421",
"j. c #5AB422",
"k. c #5DB728",
"l. c #5EB828",
"z. c #50B832",
"x. c #55BC3D",
"c. c #63BA2C",
"v. c #63BA2D",
"b. c #66B828",
"n. c #65B82C",
"m. c #67BC32",
"M. c #67BD35",
"N. c #6EBF3E",
"B. c #409D44",
"V. c #538C56",
"C. c #4BB253",
"Z. c #56B25F",
"A. c #648C67",
"S. c #62AD66",
"D. c #69B670",
"F. c #73B079",
"G. c #69C03D",
"H. c #45C049",
"J. c #4EC044",
"K. c #4BC64D",
"L. c #5FC24E",
"P. c #59C55E",
"I. c #69C041",
"U. c #62C553",
"Y. c #76C245",
"T. c #7FC64E",
"R. c #75CA63",
"E. c #79B681",
"W. c #84C958",
"Q. c #8BCE69",
"!. c #82D06A",
"~. c #8FD479",
"^. c #95CF69",
"/. c #93D477",
"(. c #A4D57E",
"). c #A0D87F",
"_. c #86B48C",
"`. c #B4BAB4",
"'. c #B8BFBA",
"]. c #8CDC91",
"[. c #A7DC8F",
"{. c #AADA8C",
"}. c #ADDC8F",
"|. c #AFDD8F",
" X c #B4DE98",
".X c #B8E19A",
"XX c #B7E3A5",
"oX c #BBE5AC",
"OX c #BCE5AC",
"+X c #C2E7B6",
"@X c #DDF0CF",
"#X c #DEF3DA",
"$X c #E3F3D9",
"%X c #E6F4D9",
"&X c #E6F4DC",
"*X c #E6F4DD",
"=X c #EBF4E0",
"-X c #EEF8E9",
";X c #F7FBF6",
":X c #F7FCF6",
">X c gray100",
",X c None",
/* pixels */
",X,X,X,X;./ ~ I g ! &.C.,X,X,X,X",
",X,XK.-.*.U.Q.T.n.O.V x Z.,X,X,X",
",X].^ J.{.^.c.u.5.u.p.:.y D.,X,X",
",XH.f.(.Y.,.k.%X X4.q.p.2.h E.,X",
"P.] W.m.} h.=X>X.X1.7.t.a.( ) ,X",
"=.@.b.[ h.*X>X|.} [ o. .+.%.3 _.",
"s 7.<.l.*X>X@XM.n.N.G.I.9.#.j 4 ",
"i e.i.-X>X>X>X>X>X>X>X>X!.R k % ",
"u r.q.|.>X>X$X[.XXOXOX+Xx.Y p # ",
"z 3.w...).>X;Xg.c E C m P T < 9 ",
"B.l d.>._ /.>X;Xz.c m b L a O '.",
"S.5 X.8._ C ~.>X#XB d K J ; 7 ,X",
",XF.: ' $.W m R.L.d H G 1 $ `.,X",
",X,X6 > n Q T S D J A < @ e ,X,X",
",X,X,XV.& - 2 t r ; O o w ,X,X,X",
",X,X,X,X8 A.* . X q 0 ,X,X,X,X,X"
};
