/* XPM */
static char *icon_erase[] = {
/* columns rows colors chars-per-pixel */
"16 16 7 1",
"  c black",
". c red",
"X c magenta",
"o c #808000",
"O c yellow",
"+ c #808080",
"@ c None",
/* pixels */
"@@@@@@@@@@@@@@@@",
"@@@@@@@@@@  @@@@",
"@@@@@@@@@ + @@@@",
"@@@@@@@@ ++  @@@",
"@@@@@@@ ++ OO  @",
"@@@@@@ ++ OO o @",
"@@@@@ ++ OO o @@",
"@@@@ ++ OO o @@@",
"@@@ .  OO o @@@@",
"@+@... O o @@@@@",
"@++.... o @@@@@@",
"@@@+.... @@@@@@@",
"@@+X+.. @@@@@@@@",
"@+++X++@@@@@@@@@",
"@+@++@++@@@@@@@@",
"@@@@@@@@@@@@@@@@"
};
