/* XPM */
static char *icon_purge[]={
"16 16 61 1",
". c None",
"p c #007e8b",
"D c #058693",
"v c #078491",
"u c #138a91",
"E c #1a8d9f",
"K c #215f66",
"Y c #275b5c",
"4 c #285b63",
"Q c #286e6c",
"1 c #2c6671",
"T c #2d6a67",
"G c #2f7070",
"w c #369ca6",
"C c #57ab84",
"P c #58c0ca",
"2 c #5bbfc9",
"y c #62d5e2",
"k c #675c0c",
"z c #68dae6",
"b c #6b5b06",
"f c #6b6218",
"c c #6d600f",
"t c #72b991",
"a c #736513",
"g c #81742c",
"3 c #93adbd",
"W c #94d6dd",
"X c #9da995",
"U c #a4dce2",
"h c #ada875",
"O c #b1e1e6",
"6 c #bad9f4",
"# c #bcb68e",
"H c #bee6eb",
"5 c #c0dcf5",
"0 c #c4dff5",
"S c #c8c835",
"Z c #cbe2f6",
"J c #cdecef",
"V c #cecea0",
"L c #d1e6f7",
"d c #d4d0b5",
"I c #dbf1f4",
"R c #e5e4a0",
"j c #e8e5d7",
"q c #efeec4",
"N c #f1f14e",
"F c #f6f55a",
"B c #f9f96a",
"M c #f9f9ae",
"x c #fbfb7d",
"A c #fcfbb7",
"s c #fdfd91",
"o c #fefeaf",
"r c #fefec8",
"m c #fefee3",
"l c #fefee8",
"n c #ffffda",
"i c #fffff2",
"e c #fffff9",
"..#abba#........",
"..cdeedf........",
"gcheiiehbbbbgj..",
"kiilmmliiiii#g..",
"cnooooooopppqf..",
"krssstuvvvvvvvvw",
"krxxxuyzzzzzzzyv",
"kABBBCDDDDDDDDDE",
"kAFFFFGHIIIIIJKL",
"kMNNNNGOPQJQPHK.",
"kRSSSSTUPQHQPOK.",
"fhVVVVGWPQOQPUK.",
"XfkkkkYWPQUQPWK.",
".Z000012UUUUUP1.",
"......34KKKKK43.",
".......5666665.."};
