/* XPM */
static char *icon_addtobook[]={
"16 16 24 1",
". c None",
"m c #008000",
"i c #00c000",
"v c #333333",
"n c #666666",
"p c #6699cc",
"o c #66ccff",
"d c #999999",
"s c #9999ff",
"q c #99ccff",
"r c #cc6600",
"t c #cc99cc",
"l c #cccc99",
"g c #cccccc",
"f c #ccccff",
"c c #ccffff",
"e c #ff9900",
"u c #ff9933",
"b c #ff9966",
"a c #ffcc66",
"k c #ffcc99",
"# c #ffcccc",
"j c #ffffcc",
"h c #ffffff",
"................",
".........#ab....",
"........#c#ad...",
"ea#fg..#chcii...",
"bchj#klchhhiim..",
"ggjhhcfchhhiimd.",
".bchhjf#hhhiimn.",
".efjhhcoiiiiiiii",
".gbcjhjfiiiiiiii",
"..efcjh#fmmiimmm",
"..gpqfcjofciim..",
"...rrdsqstuiim..",
"...dnnrrpnviim..",
"........nvn.mm..",
"................",
"................"};
