/* XPM */
static char *icon_whatsthis[] = {
/* columns rows colors chars-per-pixel */
"18 18 105 2",
"   c #4C4C4C",
".  c #535353",
"X  c gray37",
"o  c #5F5F5F",
"O  c #626262",
"+  c #6F6F6F",
"@  c gray46",
"#  c #797979",
"$  c gray50",
"%  c #0052FA",
"&  c #0F5BF5",
"*  c #0D5BF9",
"=  c #115FFF",
"-  c #185FF0",
";  c #1662FC",
":  c #1763FF",
">  c #1F69FF",
",  c #296AEF",
"<  c #2B6BEF",
"1  c #2069FE",
"2  c #286CF6",
"3  c #2D6FF7",
"4  c #296EFB",
"5  c #2B70FB",
"6  c #306DEA",
"7  c #336FE9",
"8  c #3A75EE",
"9  c #3D76EB",
"0  c #3574F5",
"q  c #3074FE",
"w  c #3D7DFF",
"e  c #4B7AD9",
"r  c #457CED",
"t  c #4380FD",
"y  c #4381FF",
"u  c #4582FF",
"i  c #4784FF",
"p  c #4B85FB",
"a  c #4985FF",
"s  c #4B86FF",
"d  c #4D88FF",
"f  c #4E88FE",
"g  c #4F89FF",
"h  c #5786E5",
"j  c #5F8AE1",
"k  c #5E8DEC",
"l  c #558AF5",
"z  c #558DFF",
"x  c #568DFE",
"c  c #578EFF",
"v  c #598DF5",
"b  c #588CF6",
"n  c #5F94FF",
"m  c #7797D7",
"M  c #7F9EDD",
"N  c #6791E7",
"B  c #6394F9",
"V  c #6799FF",
"C  c #6A97F2",
"Z  c #6A99F8",
"A  c #719DF5",
"S  c #78A1F6",
"D  c #7CA3F4",
"F  c magenta",
"G  c #868686",
"H  c #898989",
"J  c #8B8B8B",
"K  c #989898",
"L  c gray62",
"P  c gray64",
"I  c gray71",
"U  c #83ACFF",
"Y  c #84ACFE",
"T  c #8BADF3",
"R  c #8CAEF4",
"E  c #93B3F5",
"W  c #97B7F7",
"Q  c #92B6FE",
"!  c #9BB7F1",
"~  c #9ABAFC",
"^  c #A0BDF8",
"/  c #A6C3FE",
"(  c #A7C4FF",
")  c #A9C4FB",
"_  c #B7CFFF",
"`  c #C9D8F7",
"'  c #CAD9F8",
"]  c #CADAFA",
"[  c #CDDBF9",
"{  c #D7E4FF",
"}  c #DDE7FB",
"|  c #DDE8FF",
" . c #DEE9FE",
".. c #E3EBFD",
"X. c #E4EBF8",
"o. c #E6EDFA",
"O. c #E7EFFF",
"+. c #E9EFFB",
"@. c #F1F4F9",
"#. c #F5F8FF",
"$. c #F9F9F9",
"%. c #FBFCFD",
"&. c gray99",
"*. c gray100",
"=. c None",
/* pixels */
"=.=.=.=.=.=.=.=.=.=.3 h j 9 =.=.=.=.",
"=.=.=.=.=.=.=.=.=.r ! [ } ` M =.=.=.",
"# =.=.=.=.=.=.=.0 W  .%.#.*. .m =.=.",
"# # =.=.=.=.=.1 N ( +.{ ~ o.O.D & =.",
"# *.O =.=.=.=.4 C U ( U T @.) p ; =.",
"# *.$.@ =.=.=.5 v n x Z X.] l y ; =.",
"# *.*.*.$ =.=.> w p i T ..B u u = =.",
"# *.*.*.*.G =.e q f p D ^ f f y % =.",
"# *.*.*.*.*.L =.6 b x E ] V x 2 =.=.",
"# *.*.*.*.*.*.L =.7 k Q _ A 8 =.=.=.",
"# *.*.*.*.I X X =.=.& , < ; =.=.=.=.",
"# *.*.H *.H =.=.=.=.=.=.=.=.=.=.=.=.",
"# *.    *.*.  =.=.=.=.=.=.=.=.=.=.=.",
"#   =.=.K *.$ =.=.=.=.=.=.=.=.=.=.=.",
"=.=.=.=.+ *.&.  =.=.=.=.=.=.=.=.=.=.",
"=.=.=.=.=.P &.H =.=.=.=.=.=.=.=.=.=.",
"=.=.=.=.=.X *.*.  =.=.=.=.=.=.=.=.=.",
"=.=.=.=.=.=.. . =.=.=.=.=.=.=.=.=.=."
};
