/* XPM */
static char *icon_index[] = {
/* columns rows colors chars-per-pixel */
"16 16 124 2",
"   c black",
".  c #010200",
"X  c #030000",
"o  c #332F2F",
"O  c #413C38",
"+  c #433F3E",
"@  c #464746",
"#  c #4F4747",
"$  c #4B4847",
"%  c #494949",
"&  c #4D4C4B",
"*  c #4F4C4A",
"=  c #504B49",
"-  c #524B4B",
";  c #534D4C",
":  c #534D4D",
">  c #5B544E",
",  c #505050",
"<  c #535353",
"1  c #545352",
"2  c #545453",
"3  c #575554",
"4  c #595553",
"5  c #5A5A5A",
"6  c #5F5B59",
"7  c #68625D",
"8  c #646260",
"9  c #656363",
"0  c #656565",
"q  c #696665",
"w  c #6B6766",
"e  c #6C6762",
"r  c #6D6C69",
"t  c #6E6C6C",
"y  c #716962",
"u  c #756C65",
"i  c #726D6D",
"p  c gray44",
"a  c gray46",
"s  c #837F7B",
"d  c #808080",
"f  c #818181",
"g  c #848080",
"h  c #898582",
"j  c #8C8783",
"k  c #8F8C8A",
"l  c gray55",
"z  c #968B80",
"x  c #929090",
"c  c #939393",
"v  c #989898",
"b  c gray60",
"n  c #9B9B9B",
"m  c #9C9B9B",
"M  c gray61",
"N  c gray62",
"B  c #9F9F9E",
"V  c #A7A39F",
"C  c #ACA194",
"Z  c #ACA295",
"A  c #AFA295",
"S  c #A0A0A0",
"D  c gray63",
"F  c #A2A2A2",
"G  c gray64",
"H  c #A4A4A4",
"J  c #A7A7A7",
"K  c #A9A8A7",
"L  c gray66",
"P  c gray67",
"I  c #ACACAC",
"U  c #AFAFAF",
"Y  c #B6B0A9",
"T  c #B5B1AC",
"R  c #B1B1B1",
"E  c #B2B2B2",
"W  c gray70",
"Q  c #BFBAB3",
"!  c gray72",
"~  c #B9B9B9",
"^  c gray73",
"/  c gray75",
"(  c #C4BCB4",
")  c #CFC6BC",
"_  c #D7CABB",
"`  c #D6CBBD",
"'  c #D6CBBE",
"]  c #DCCEBE",
"[  c #C0C0C0",
"{  c gray76",
"}  c #C3C3C3",
"|  c gray77",
" . c #C5C5C5",
".. c #C6C6C6",
"X. c gray78",
"o. c gray79",
"O. c #CACACA",
"+. c #CBCBCB",
"@. c gray80",
"#. c #CDCDCD",
"$. c #D2CBC2",
"%. c #D6CCC1",
"&. c #DBCFC0",
"*. c gray82",
"=. c LightGray",
"-. c #D5D5D5",
";. c gray84",
":. c #DAD6D2",
">. c #DADADA",
",. c gray86",
"<. c gainsboro",
"1. c #DDDDDD",
"2. c #DFDFDF",
"3. c gray88",
"4. c #E1E1E1",
"5. c #E2E2E2",
"6. c #E4E4E4",
"7. c gray91",
"8. c #ECECEC",
"9. c gray93",
"0. c #EFEFEF",
"q. c gray95",
"w. c #F6F6F6",
"e. c None",
/* pixels */
"e.                            e.",
"e.  J G G G G J G J G G J x   e.",
"e.  6.{ { } }  . . . .+.+.G   e.",
"e.  -.n M N N G G G G G G d   e.",
"e.  0.2.3.3.3.3.3.3.3.2.3. .  e.",
"e.  7.+.#.#.#.^ r / +.=.=.P   e.",
"e.  >.W W W I i K 5 n W ! n   e.",
"e.  0.>.>.2.=.s V 0 I -.2./   e.",
"e.  3.} }  .J w ( 3 % 2 d B   e.",
"e.  7.-.-.-.& k %.:.h j 2 p   e.",
"e.  0.>.2.#.& Y ` $.Q Y 6 t   e.",
"e.  2.^ ^ P $ ) ] _ ] ' > 0   e.",
"e.  w.0.0.2.1 s Z Z Z z O x   e.",
"e.  q.3.3.3.m + 7 y u e o P   e.",
"e.  l a a a p w = # = 7 @ p   e.",
"e.            X : : * 2       e."
};
