/* XPM */
static char *icon_keyboard[] = {
/* columns rows colors chars-per-pixel */
"16 16 11 1",
"  c #4C4C4C",
". c gray30",
"X c gray54",
"o c gray55",
"O c #8D8D8D",
"+ c #AAAAAA",
"@ c gray67",
"# c #E7E7E7",
"$ c gray91",
"% c gray100",
"& c None",
/* pixels */
"&&&&&&&&&&&&&&&&",
"&&&&&&&&&&&&&&&&",
"&&&&&&&&&&&&&&&&",
"&&&&&&&&&&&&&&&&",
"OOOOOOOOOOOOOOOO",
"O%############+ ",
"O#%+%+%@%+%@%++.",
"O#+++++++++++%+.",
"O#%%+%+%@%@%%%@.",
"O#+@+++++++++++.",
"O#%+%%%%%%%%+%+.",
"O++@@+++++++++X.",
". .   .. .. ..  ",
"&&&&&&&&&&&&&&&&",
"&&&&&&&&&&&&&&&&",
"&&&&&&&&&&&&&&&&"
};
