/* XPM */
static char *icon_forward[] = {
/* columns rows colors chars-per-pixel */
"16 16 84 1",
"  c #000D5E",
". c #0014C5",
"X c #001AC5",
"o c #001AC6",
"O c #001DC6",
"+ c #0022C6",
"@ c #0024C5",
"# c #002BC6",
"$ c #012CC6",
"% c #0035C6",
"& c #0137C6",
"* c #013BC6",
"= c #0141C7",
"- c #0042C6",
"; c #0149C7",
": c #014AC7",
"> c #004CC7",
", c #014EC7",
"< c #015AC7",
"1 c #015BC7",
"2 c #0067C7",
"3 c #0066C8",
"4 c #006CC8",
"5 c #016DC8",
"6 c #0171C8",
"7 c #0172C8",
"8 c #0175C9",
"9 c #0177C8",
"0 c #017DC8",
"q c #007EC9",
"w c #007FC9",
"e c #017FC8",
"r c #18FF00",
"t c #0186C8",
"y c #018AC9",
"u c #018CC9",
"i c #018DC8",
"p c #0195C9",
"a c #009ACA",
"s c #019CC9",
"d c #019DC9",
"f c #009ECA",
"g c #009FCA",
"h c #019ECA",
"j c #01A1C9",
"k c #01A3C9",
"l c #01A5CA",
"z c #01A6CA",
"x c #01A8CA",
"c c #01A9CA",
"v c #01ABCA",
"b c #01AECA",
"n c #8F8D8D",
"m c #908E8E",
"M c #929091",
"N c #949293",
"B c #9B999A",
"V c #9C9A9A",
"C c #A19FA0",
"Z c #AAA9A9",
"A c #B7B6B6",
"S c #BDBCBD",
"D c #BEBDBD",
"F c #C5C4C4",
"G c #CAC9C9",
"H c #D0CFCF",
"J c #D4D3D3",
"K c #DCDBDB",
"L c gainsboro",
"P c gray87",
"I c #E2E1E1",
"U c #E6E6E6",
"Y c #E7E6E7",
"T c #EAEAEA",
"R c #ECECEC",
"E c #EFEFEF",
"W c gray94",
"Q c #F1F1F1",
"! c #F3F3F3",
"~ c #F6F6F6",
"^ c gray98",
"/ c #FCFBFC",
"( c gray100",
") c None",
/* pixels */
"))))))))))))))))",
"fpyw62<,-&#+OX))",
"f(y((((((((+(.))",
"f((w((((T!#(YX))",
"f((!8EKDS*((A+))",
"j((JY4PG;((^C#))",
"j(YHw(2<(;(IB&))",
"z(Ri((((((  B-))",
"z(a((/!~! rr ;))",
"vzKFZMnnmm rr ))",
"bvjfpitw965 rr )",
")))))))))))) rr ",
"))))))))))) rr )",
")))))))))) rr ))",
"))))))))) rr )))",
"))))))))))  ))))"
};
