/* XPM */
static char *icon_question[]={
"16 16 82 2",
".# c None",
"Qt c None",
".q c #5555a2",
".L c #7373b3",
".h c #a8a8d0",
".T c #5555a2",
"#e c #010101",
".4 c #5555a2",
"#f c #656565",
"#. c #929292",
"#p c #010101",
"#l c #1f1f1f",
".Y c #5555a2",
".U c #5d5da7",
".g c #6363aa",
".a c #a1a1cc",
".u c #5555a2",
".H c #7c7cb8",
".r c #a3a3cd",
"#o c #030303",
".p c #5555a2",
".i c #a3a3cd",
"#m c #595959",
".f c #6f6fb1",
".b c #9898c7",
".S c #5e5fa8",
".Z c #5f5fa8",
".M c #7171b3",
"#k c #26262b",
".8 c #2b2b52",
"#d c #2e2e32",
".9 c #30305c",
".7 c #34345b",
"#n c #444444",
".6 c #525279",
".z c #6465ae",
".G c #6566ae",
".5 c #6b6b96",
".D c #7476b9",
"#g c #828282",
".e c #8d8fc9",
".o c #8f93cd",
".E c #9192c6",
".d c #9597ce",
".t c #9ba0d6",
".c c #9d9fd2",
"## c #9f9f9f",
".X c #9fa1d1",
".V c #a0a2d1",
".v c #a2a3d0",
".A c #a2a4d3",
".K c #aaaedc",
"#j c #b1b1c1",
".I c #b6bae3",
".j c #b9bbe1",
".s c #bfc3e8",
"#c c #c3c3cf",
".3 c #c8c8e2",
".1 c #cecfe8",
"#i c #d4d4dd",
".R c #dadff9",
".N c #dbe0fa",
".F c #dce2ff",
"#b c #dddde4",
".J c #dfe5ff",
".Q c #e1e7ff",
".n c #e2e6fa",
".P c #e2e8ff",
".O c #e3e8ff",
".k c #e5e9fc",
".y c #e6ebff",
"#h c #e8e8ed",
".B c #e8edff",
".w c #e9edff",
".W c #eaedff",
"#a c #ededf1",
".0 c #f0f3ff",
".C c #f3f5ff",
".2 c #f6f8ff",
".l c #fbfcff",
".x c #fcfdff",
".m c #ffffff",
"QtQt.#.#.a.b.c.d.e.f.g.#.#QtQtQt",
"QtQt.h.i.j.k.l.m.l.n.o.p.qQtQtQt",
"QtQt.r.s.l.m.m.m.m.m.l.t.uQtQtQt",
"QtQt.v.w.x.x.x.x.x.x.x.y.zQtQtQt",
"QtQt.A.B.C.C.C.C.C.C.C.y.DQtQtQt",
"QtQt.E.F.w.w.w.w.w.w.w.F.GQtQtQt",
"QtQt.H.I.J.J.J.J.J.J.J.K.uQtQtQt",
"QtQt.L.M.N.O.P.Q.P.O.R.S.TQtQtQt",
"QtQt.#.U.V.W.W.W.W.W.X.Y.#QtQtQt",
"QtQt.#.q.Z.0.0.0.0.0.Z.q.#QtQtQt",
"QtQt.#.#.u.1.2.2.2.1.u.#.#QtQtQt",
"QtQt.#.#.Y.3.x.x.x.3.Y.#.#QtQtQt",
"QtQt.#.#.4.5.6.7.8.9.4.#.#QtQtQt",
"QtQt.#.##.###a#b#c#d#e.#.#QtQtQt",
"QtQt.#.##f#g#h#i#j#k#e.#.#QtQtQt",
"QtQt.#.#.##l#m#n#o#p.#.#.#QtQtQt"};
