/* XPM */
static char *icon_desc[] = {
/* columns rows colors chars-per-pixel */
"16 16 6 1",
"  c #003366",
". c #006666",
"X c #003399",
"o c #006699",
"O c gray100",
"+ c None",
/* pixels */
"+++X.  X X.X.+++",
"++.XXXX.X X X ++",
"+X   +++++o  o +",
"X.o+++++++++X .X",
"X X+.XX.X  ++XX.",
"X +++++++++++ XX",
"X.++++++++++++ .",
" X +X XX XX++XX.",
".X ++++++++++ X ",
" X.X++++++++.X. ",
"+X X X XX. XoXX+",
"++.X.X.X XX.  ++",
"+++++++++ XX +++",
"+++++++++o .++++",
"++++++++ X++++++",
"+++++++ ++++++++"
};
