/* XPM */
static char *icon_help[] = {
/* columns rows colors chars-per-pixel */
"16 16 116 2",
"   c #1A64FA",
".  c #1B65FC",
"X  c #2268F8",
"o  c #226BFF",
"O  c #256DFF",
"+  c #266DFF",
"@  c #286DFB",
"#  c #2B70FD",
"$  c #2A70FF",
"%  c #2E73FF",
"&  c #3175FF",
"*  c #3276FF",
"=  c #3578FE",
"-  c #3678FF",
";  c #3B7CFF",
":  c #3E7CFA",
">  c #3C7CFF",
",  c #3D7EFF",
"<  c #407FFF",
"1  c #4180FF",
"2  c #4880F0",
"3  c #4B82F3",
"4  c #4E85F5",
"5  c #4883FE",
"6  c #4984FC",
"7  c #4A85FD",
"8  c #4E87FC",
"9  c #4F88FE",
"0  c #548AF7",
"q  c #538BFE",
"w  c #568CFB",
"e  c #548DFF",
"r  c #558EFF",
"t  c #568CFC",
"y  c #568EFE",
"u  c #598CF4",
"i  c #5F90F6",
"p  c #5B91FD",
"a  c #5A90FE",
"s  c #5A91FF",
"d  c #5B91FF",
"f  c #5C90FA",
"g  c #5D90FA",
"h  c #5C91FE",
"j  c #5D92FF",
"k  c #5E93FF",
"l  c #5F94FD",
"z  c #5E94FE",
"x  c #6094FF",
"c  c #6396FE",
"v  c #699AFC",
"b  c #6D9CFC",
"n  c #6C9DFF",
"m  c #6D9DFF",
"M  c #6E9EFF",
"N  c #709FFF",
"B  c #77A0F4",
"V  c #79A3F9",
"C  c #7EA7F9",
"Z  c #7CA8FF",
"A  c magenta",
"S  c #86ACF7",
"D  c #87ACF8",
"F  c #87ADFA",
"G  c #84AEFF",
"H  c #87AEFD",
"J  c #88B0FF",
"K  c #8CB2FF",
"L  c #94B7FE",
"P  c #9AB9F9",
"I  c #9ABCFF",
"U  c #A0BFFE",
"Y  c #A6C3FF",
"T  c #A9C5FD",
"R  c #AAC5FD",
"E  c #AAC6FE",
"W  c #ACC7FF",
"Q  c #B0CAFF",
"!  c #B7CDFA",
"~  c #B5CEFF",
"^  c #B6CDFC",
"/  c #BFD0F4",
"(  c #BBD0F9",
")  c #BED2FB",
"_  c #BCD2FE",
"`  c #C5D4F2",
"'  c #C2D6FE",
"]  c #C7D7F8",
"[  c #C8D8FA",
"{  c #CADAF9",
"}  c #CFDEFC",
"|  c #D0DFFE",
" . c #D4E0F8",
".. c #D7E3FD",
"X. c #D6E4FE",
"o. c #DCE4F6",
"O. c #DDE6F7",
"+. c #D8E2F8",
"@. c #DAE4F8",
"#. c #D9E5FD",
"$. c #DCE6F8",
"%. c #DDE7FB",
"&. c #DEE9FF",
"*. c #DEEAFF",
"=. c #E2EBFE",
"-. c #E2ECFF",
";. c #EBEFF8",
":. c #EAF1FF",
">. c #EDF2FB",
",. c #EEF2FC",
"<. c #F0F5FF",
"1. c #F8FAFF",
"2. c #FCFDFF",
"3. c #FDFEFF",
"4. c gray100",
"5. c None",
/* pixels */
"5.5.5.5.5.5.5.5.5.5.5.5.5.5.5.5.",
"5.5.5.5.5.> 1 f f > * 5.5.5.5.5.",
"5.5.5.; q R =.o.+.%.) w # 5.5.5.",
"5.5.; v | { $.3.3.,.} #.B + 5.5.",
"5.5.q _ ) >.3.:.=.3.3.| ' 8 5.5.",
"5.> G Q ! 3.<.Q Q ] 3.*.R C o 5.",
"5.< L I U &.~ I P o.3.R e e % 5.",
"5.7 G G G G G S o.3.#.p e e = 5.",
"5.7 n M n M M ` 3.#.l e e e = 5.",
"5.> p l p p d ;.1.c d d d d # 5.",
"5.* p x x x x ! W x x x l d . 5.",
"5.5.7 M M M M / { M M M M : 5.5.",
"5.5.# f Z Z V 3.3.J Z Z u   5.5.",
"5.5.5.+ 0 S K Y W K S 4   5.5.5.",
"5.5.5.5.5.@ 3 w e 2 X 5.5.5.5.5.",
"5.5.5.5.5.5.5.5.5.5.5.5.5.5.5.5."
};
