/* XPM */
static char *qfe[]={
"32 32 244 2",
"Qt c None",
"bK c #00ab1f",
".7 c #00c715",
".6 c #00cf15",
".O c #03bd08",
".P c #0bb50f",
".H c #0bb822",
"#c c #109b24",
".n c #16a727",
".Y c #16ae17",
"#m c #189629",
".Z c #18b227",
".0 c #18c626",
".5 c #1aa61b",
"#z c #1c8f2a",
"#b c #1e9f1e",
".I c #1ea72f",
".G c #1fc518",
"#F c #217d37",
"#o c #219721",
"#x c #23882c",
"#E c #24832f",
"#n c #259225",
".o c #25a336",
"#D c #277e32",
"#y c #288b28",
".p c #2a973d",
"#J c #2b7538",
"#K c #2c7935",
".J c #2c913c",
"#L c #2d713b",
".R c #2e9b36",
".q c #2f8c41",
"#U c #306b3c",
"#9 c #31673e",
"#8 c #326241",
".K c #338545",
".Q c #34ad2e",
".r c #357b49",
".1 c #367450",
"al c #375a46",
"#7 c #376246",
"ak c #3a5649",
"aO c #3b514a",
"am c #3b5a41",
".s c #3b6f51",
"az c #3c4e4d",
".8 c #3f5d5f",
"ay c #40494f",
".L c #40625a",
"bp c #40753a",
"aW c #415448",
".t c #416656",
"aP c #424356",
"aN c #424d4e",
"aL c #433c57",
"aM c #434553",
"bv c #436842",
"bf c #44563a",
".u c #445761",
"bW c #45b251",
"bO c #45d94d",
"aZ c #464055",
"a0 c #46474f",
"bi c #467037",
".S c #467c52",
"a1 c #47335c",
"bT c #47c746",
"ah c #493659",
"aY c #493956",
".9 c #493e62",
".2 c #494f64",
".T c #495460",
"ba c #4b2d5f",
".v c #4b4968",
"b# c #4c2862",
"aX c #4c2f59",
"bA c #4c4746",
"bB c #4c693b",
"aw c #4e4452",
"#Q c #4f2563",
".w c #4f3f6e",
"#4 c #50295e",
"aG c #503955",
"#d c #505461",
"#w c #509158",
"#l c #509d55",
"bV c #50c050",
"a5 c #512266",
"aE c #541e6a",
"a9 c #54723b",
"bD c #547e37",
"#a c #54a758",
"#P c #552958",
".M c #553278",
"bt c #555f3f",
".x c #563370",
"bq c #565336",
"#C c #568c61",
"#I c #578366",
"#0 c #595513",
"bx c #598a34",
".y c #5b297f",
"a. c #5b3f30",
"bb c #5b4448",
"#Z c #5c3a4a",
"ar c #5c3f5b",
"aU c #5c4d3c",
"bm c #5c5d33",
"#H c #5d2473",
"#p c #5e666d",
"#Y c #5f4039",
"#T c #5f7b6c",
"#O c #602a66",
"#1 c #60600b",
"#R c #613c77",
"#6 c #62726c",
"aJ c #636b44",
"#e c #655974",
"#. c #672c7b",
".z c #672c88",
"#N c #673474",
"a2 c #673966",
"an c #676c1d",
"aj c #686871",
"by c #68aa6f",
"as c #69692f",
".U c #6b2b8f",
"#X c #6b4360",
"aA c #6c654e",
"#5 c #6d587e",
"#2 c #707318",
"be c #717d20",
"a8 c #718d2d",
"ad c #725948",
"bw c #729731",
"av c #737e39",
"ao c #74377f",
"#A c #743989",
"au c #747825",
"#g c #755287",
"bQ c #75dc7c",
"#f c #765685",
"aa c #778010",
"aV c #788633",
"#q c #7a5e86",
"bG c #7a8c3c",
"#W c #7c4d7b",
"#3 c #7c7936",
"aH c #7c823c",
".X c #7cc87f",
"bl c #7d7e10",
".m c #7dd17e",
"#V c #7e5486",
"bn c #7e943c",
".A c #7f3da0",
"#s c #7f4394",
"ai c #7f718a",
"#M c #804b8d",
"#r c #805292",
"bd c #80694a",
".F c #82dc80",
"#G c #83478f",
"a# c #844c83",
"bh c #84992a",
"bC c #84a05a",
"aI c #879235",
"#h c #885099",
"bo c #8ab13e",
".4 c #8ac489",
"aS c #8c6568",
"bE c #8c9946",
"bz c #8e4d9a",
"#t c #9056a0",
".V c #944fb0",
"a7 c #94aa1f",
"aD c #958f3d",
"ab c #959a27",
"aF c #959c35",
"#j c #965ba6",
"aQ c #96973d",
"ax c #9798a2",
"ap c #998d51",
"#u c #9a5faa",
"bs c #9aa54b",
"bg c #9aae2e",
"#v c #9d62ad",
".C c #9e57ba",
".B c #9e5cb6",
"#i c #9e60a6",
".f c #a089b1",
"bF c #a1b54d",
".e c #a29ab3",
".g c #a482b4",
".j c #a667bf",
".h c #a77ebe",
".i c #a973ba",
"at c #a9ab52",
"aB c #a9bf40",
"ac c #abb53c",
"bP c #ac78b5",
"aK c #acb1b3",
"bJ c #accc59",
"bR c #adf1b2",
"a3 c #aebe48",
"a6 c #b3b250",
".b c #b3c7bc",
".D c #b47fc9",
"a4 c #b5a475",
"ag c #b5af55",
"aq c #b6b070",
"bH c #b7dfb9",
"bU c #b7e9ba",
"aT c #b8c04c",
"## c #b990c4",
".d c #b9bac4",
".c c #b9c4c2",
"br c #b9cc3c",
"bu c #bccf5a",
".k c #be8ece",
"bc c #bed353",
"#k c #c6a1cc",
"bL c #c7efd0",
"af c #c9d06a",
"bk c #c9dc5c",
".W c #ca9fd5",
".a c #cee4d5",
".N c #d0afd8",
"#B c #d4c2d7",
".# c #d4efd8",
"aC c #d5de6e",
"bI c #d9c2df",
"bX c #dddadf",
"bM c #ddf8e2",
"b. c #dee8e2",
".E c #dfc8e5",
"ae c #e0e58f",
".3 c #e6d3e9",
"bS c #e6f8e6",
".l c #eae2f1",
"aR c #eae9a5",
"bN c #f0f9f1",
"bj c #f2f4f0",
"#S c #f4f0f7",
"Qt.#.#.a.a.b.b.c.d.e.f.g.h.i.j.j.j.j.k.lQtQtQtQtQtQtQtQtQtQtQtQt",
".m.n.o.o.p.q.r.s.t.u.v.w.x.y.z.A.B.B.j.C.D.EQtQtQtQtQtQtQtQtQtQt",
".F.G.H.I.n.I.p.J.K.r.s.L.u.v.w.M.y.z.A.B.B.C.j.NQtQtQtQtQtQtQtQt",
".m.O.P.P.n.H.H.Q.I.R.J.K.S.s.L.T.v.w.M.y.U.A.V.B.j.W.lQtQtQtQtQt",
".X.P.H.P.Y.Z.H.0.0.Z.I.o.p.q.K.1.t.L.2.v.w.M.y.z.A.V.B.k.3QtQtQt",
".4.5.5.5.5.5.n.n.0.6.7.0.Z.Q.R.p.q.r.1.t.8.T.9.x.y#..A.V.B##QtQt",
"#a#b.n.n#b#b#b.n#c.Z.6.7.Z.I.J.S.t#d#e#f#g#h#h#i#j#i#i#i#i#kQtQt",
"#l#m#n#n#m#m#m#o#o#m#p#q#r#s#t#i#i#i#u#i#v#v#v#u#v#u#u#u#t.NQtQt",
"#w#x#x#y#z#z#y#z#n#x#q#i#i#v#v#v#v#v#v#v#i#i#i#i#i#u#t#s#A#BQtQt",
"#C#D#E.q#D#E#E#x#E#F#r#v#v#i#i#i#i#i#i#i#u.i#v#u#t#G#A#.#H.lQtQt",
"#I#J#K#K#K#K#K#D#D#L#r#i#v#v#v#v#v#v#v#i#u#t#M#N#N#O#P#Q#R#SQtQt",
"#T#U#U#L#L#L#L#L#J#U#M.i#i.i#i#i.i#i#V#W#X#Y#Z#0#1#2#3#4#5QtQtQt",
"#6#7#7#8#9#9#9#9#U#7#t#u#i#W#Ya.a##V#2aaabacadacaeafagahaiQtQtQt",
"ajakalakal#7am#7#7ak#u#va#anaaaa#YaoapaeaqagarasatauavawaxQtQtQt",
"#eayazazazakakakakaz#i#uaAaBaCafaDaE#ZaF#3aDaGaHaFaIaJayaKQtQtQt",
"#5aLaMaMayayaNazaOaP#j#GaQaRaS#XaT#PaUabaDaAawaIaTaVaWak.bQtQtQt",
"#RaXahaYaLaZaPaPa0a1aoa2a3a4a5#4a6arasaTaQawaza7aVa8a9.sb.QtQtQt",
"#Qb#babaaXa1ahaYaLba#HbbbcbdaXaGaTawbeavavazbfbga9bhbi.SbjQtQtQt",
"#.aEa5#Q#Qbababaahbaa5aUbk#2blbmacaybhavaOaWbnaCbcbobp#wbjQtQtQt",
"ao#.#H#Ha5a5#Qb#b#b#babqbkbrafacbsbtbuafbvbpbwbx#K#F#DbyQtQtQtQt",
"#ubz#s#A#.#HaEa5a5#4a1bAbubraIbkbBa8bCbD#9#L#L#J#K#E#x.4QtQtQtQt",
"#j#u#ibzbz#s#A#.#HbaaLaPaVaCaCbEbB#7#8#U#L#J#D#E#x#z#z.4QtQtQtQt",
".3#u#i#i#i#ibz#G#Aa1ayaNaObvbFbGbx#L#L#K#D#D#x#z#n#c.nbHQtQtQtQt",
"QtbI#u#v#u#u#u#j#jaZaOakal#8bnbJ#J#J#D#E#E#z#m#o.I.5bKbLQtQtQtQt",
"QtQt.N#j#i#i#v#i#vaMal#7bv#U#L#K#K#D#E#z#n#o#b.n.5.Y.HbMQtQtQtQt",
"QtQtQt#k#v#v#i#v#iaz#9#U#L#J#K#D#x#z#n#m#b.n.5.Y.P.G.GbNQtQtQtQt",
"QtQtQtQt###u#i#v#v#7#L#J#F#D#x#y.R#m#b#b.5.H.P.G.G.6bOQtQtQtQtQt",
"QtQtQtQtQtbP#v#ibz.r#K#D#E#y#z#m#b.5.5.Y.P.P.0bObQbRbSQtQtQtQtQt",
"QtQtQtQtQtQtbP#v#t#J#E#y#z#n#o#b.n.Z.HbT.FbUbSQtQtQtQtQtQtQtQtQt",
"QtQtQtQtQtQt.l#j#h#E#z#n#o.Q.IbV.mbUbNQtQtQtQtQtQtQtQtQtQtQtQtQt",
"QtQtQtQtQtQtQt.3#g#y.obW.XbUbSQtQtQtQtQtQtQtQtQtQtQtQtQtQtQtQtQt",
"QtQtQtQtQtQtQtQtbXbHbSQtQtQtQtQtQtQtQtQtQtQtQtQtQtQtQtQtQtQtQtQt"};
