/* XPM */
static char *smile_icon8[]={
"15 15 13 1",
". c None",
"h c #000000",
"# c #454545",
"g c #fe9d00",
"j c #ffb400",
"i c #ffc900",
"d c #ffce00",
"k c #ffe500",
"f c #ffea00",
"e c #fffd13",
"c c #fffe93",
"b c #ffffc7",
"a c #ffffeb",
".....#####.....",
"...##abccd##...",
"..#abeefffdg#..",
".#bchfffffhdg#.",
".#chfffffffhd#.",
"#beffhfffhffig#",
"#ceffhfffhffij#",
"#cffffffffffij#",
"#effffffffffij#",
"#dfffffffffkig#",
".#dffhhhhhfid#.",
".#ddhffffkhdg#.",
"..#ddiiiiidg#..",
"...##jjjjg##...",
".....#####....."};
