/* XPM */
static char *smile_icon7[]={
"15 15 15 1",
". c None",
"h c #000000",
"k c #333333",
"# c #454545",
"g c #fe9d00",
"l c #ff0000",
"j c #ffb400",
"i c #ffc900",
"d c #ffce00",
"m c #ffe500",
"f c #ffea00",
"e c #fffd13",
"c c #fffe93",
"b c #ffffc7",
"a c #ffffeb",
".....#####.....",
"...##abccd##...",
"..#abeefffdg#..",
".#bchhfffhhdg#.",
".#ceffffffffd#.",
"#beffhfffhffig#",
"#ceffhfffhffij#",
"#cffffffffffij#",
"#efkfffffffkij#",
"#dfhhhhhhhhhig#",
".#dfhlllllhid#.",
".#ddm#lll#idg#.",
"..#ddi#l#idg#..",
"...##jjjjg##...",
".....#####....."};
