/* XPM */
static char *smile_icon2[]={
"15 15 13 1",
". c None",
"h c #000000",
"# c #454545",
"g c #fe9d00",
"j c #ffb400",
"i c #ffc900",
"d c #ffce00",
"k c #ffe500",
"f c #ffea00",
"e c #fffd13",
"c c #fffe93",
"b c #ffffc7",
"a c #ffffeb",
".....#####.....",
"...##abccd##...",
"..#abeefffdg#..",
".#bchhfffhhdg#.",
".#ceffffffffd#.",
"#beffhfffhffig#",
"#ceffhfffhffij#",
"#cffffffffffij#",
"#effffffffffij#",
"#dfffffffffkig#",
".#dfhfffhhhid#.",
".#ddkhhhfkidg#.",
"..#ddiiiiidg#..",
"...##jjjjg##...",
".....#####....."};
