/* XPM */
static char *smile_icon3[]={
"15 15 14 1",
". c None",
"h c #000000",
"# c #454545",
"g c #fe9d00",
"j c #ffb400",
"i c #ffc900",
"d c #ffce00",
"l c #ffe500",
"f c #ffea00",
"e c #fffd13",
"c c #fffe93",
"b c #ffffc7",
"a c #ffffeb",
"k c #ffffff",
".....#####.....",
"...##abccd##...",
"..#abeefffdg#..",
".#bchfffffhdg#.",
".#chfffffffhd#.",
"#beffhfffhffig#",
"#cefhhfffhhfij#",
"#cffffffffffij#",
"#effkkfffkkfij#",
"#dffkkfffkklig#",
".#dfkhhhhhkid#.",
".#ddhfffflhdg#.",
"..#ddiiiiidg#..",
"...##jjjjg##...",
".....#####....."};
