/* XPM */
static char *smile_icon6[]={
"15 15 14 1",
". c None",
"h c #000000",
"# c #454545",
"g c #fe9d00",
"j c #ffb400",
"k c #ffc900",
"d c #ffce00",
"l c #ffe500",
"f c #ffea00",
"e c #fffd13",
"c c #fffe93",
"b c #ffffc7",
"a c #ffffeb",
"i c #ffffff",
".....#####.....",
"...##abccd##...",
"..#abeefffdg#..",
".#bceffffffdg#.",
".#ceffffffffd#.",
"#bhhhhhfhhhhhg#",
"#chhhihfhhhihj#",
"#cfhhhfffhhhkj#",
"#effffffffffkj#",
"#dffffffffflkg#",
".#dfhfffffhkd#.",
".#ddlhhhhhkdg#.",
"..#ddkkkkkdg#..",
"...##jjjjg##...",
".....#####....."};
